<?xml version="1.0" encoding="UTF-8"?>
<svg id="Layer_2" data-name="Layer 2" xmlns="http://www.w3.org/2000/svg" xmlns:xlink="http://www.w3.org/1999/xlink" viewBox="-350.8 -159.6 2979.4 2979.4">
  <defs>
    <style>
      .cls-1 {
        fill: #131d4a;
      }

      .cls-2 {
        fill: url(#linear-gradient);
      }

      .cls-3 {
        fill: #121d4a;
      }

      .cls-4 {
        fill: #eeefee;
      }

      .cls-5 {
        fill: #121e4a;
      }

      .cls-6 {
        fill: #804ccf;
      }

      .cls-7 {
        fill: #827bdc;
      }

      .cls-8 {
        fill: #8074dc;
      }

      .cls-9 {
        fill: #ededec;
      }

      .cls-10 {
        fill: #fdfdfd;
      }

      .cls-11 {
        fill: #fcfdfd;
      }
    </style>
    <linearGradient id="linear-gradient" x1="793.3" y1="204.38" x2="1478.92" y2="2633.99" gradientUnits="userSpaceOnUse">
      <stop offset="0" stop-color="#7d4dcb"/>
      <stop offset=".56" stop-color="#8151d1"/>
      <stop offset="1" stop-color="#81c0f1"/>
    </linearGradient>
  </defs>
  <g id="Layer_1-2" data-name="Layer 1">
    <g id="Generative_Object" data-name="Generative Object">
      <g>
        <path class="cls-1" d="M1099.3,2362.35c-31.61-56.07-51.13-116.32-62.67-178.85-23.01,28.63-45.66,55.02-71.6,79.72l-93.69,89.25c-28.44,24.64-56.23,47.95-88.13,67.84-49.28,30.73-101.64,51.74-158.62,63.39-52.04,10.64-103.24,16.4-156.17,19.55s-116.73,3.9-167.6-16.86c-45.54-18.58-76.16-60.32-73.73-110.56,1.47-30.32,14.46-57.04,34.48-79.65,38.97-44.02,104.83-89.23,161.33-104.05l70.14-18.39c78.37-18.28,146.62-59.67,199.54-120.03,25.76-29.38,45.79-60.69,60.46-97.23s26.56-73.01,33.12-113.37c-34.09,44.52-74.65,81.98-120.88,112.9-30.45,20.37-61.91,35.79-96.78,47.29-28.79,9.49-56.85,16.49-87.27,19.15l-71.91,6.29-55.62,8.65c-44.79,9.76-80.39,38.7-103.16,78.3l-18.61,32.36c-10.29,17.89-24.65,31.06-41.67,42.33-50.68,33.54-118.02,23.87-156.41-23.87-19.5-24.26-30.07-53.97-32.78-85.65-3.58-41.91,1.98-82.42,13.99-122.79,29.55-99.35,92.89-186.01,179.4-243.26,29.58-19.57,61.47-33.56,94.69-44.79l53.97-18.25c128.81-43.55,212.64-161.56,212.5-297.45l-.5-492.74-.34-198.13c-.17-99.17,24.29-194.84,73.07-281.09,34.5-61,78.6-115.93,130.65-163.24C892.52,97.31,1060.78,29.12,1240.19,7.74c88.37-10.53,176.13-10.49,264.2,1.18,56.75,7.52,111.47,17.9,165.79,35.57,80.56,26.21,147.27,58.55,218.6,104.1,59.96,38.29,113.09,84.63,161.9,136.35,39.2,41.53,72.5,86.43,101.65,135.36,58.19,97.67,93.19,202.28,111.95,314.26,14.95,89.29,19.49,178.58,10.19,268.68l-18.94,131.22c-22.42,110.42-62.95,216.01-120.07,313.09-38.67,65.73-84.78,125.77-137.51,180.26l-42.47,40.46c-28.09,26.76-58.13,49.54-90.29,71.74-53.65,37.04-110.09,68.12-171.29,90.94-30.43,11.35-60.45,19.15-91.85,26.5-38.93,9.11-69.56,34.71-81.52,73.43-17.14,55.46,2.71,113.37,40.69,156.17,23.16,26.1,51.15,46.26,82.69,61.04l38.9,15.82c-.63-27.9,10.26-54.41,31.39-74,41.59-38.54,106.85-36.74,146.2,3.77,9.97,10.27,14.52,21.36,15.88,19.51l2.16-2.94,15.01-22.73c.58-.87,1.25-2.19,1.15-2.8-.45-2.79-20.08-5.89-36.48-26.2-33.63-41.68-29.96-97.32,4.26-137,23.05-26.72,58.49-38.73,92.93-30.68,1.95.46,3.81,1.53,5.05.45,4-3.48,27.6-111.75,95.03-175.53,16.36-15.47,34.49-26.25,55.6-33.09,54.6-17.7,111.77,5.88,138.8,56.55,13.58,25.45,20.74,52.69,24.52,81.91,6.76,52.23,6.94,103.44,3.86,156.42-7.35,126.22-40.33,252.52-104.84,361.34-15.93,26.87-32.57,51.57-51.41,76.2-92.78,121.3-225.3,206.37-375.62,236.23-116.43,23.13-239.58,9.13-350.09-33.39-125.09-48.13-230.71-138.12-296.91-255.57Z"/>
        <path class="cls-8" d="M2155.36,1758.03c-5.45-.89-9.25,1.27-12.06,6.62-8.83,16.81-17.29,33.75-22.33,52.26l-6.79,44.5-19.46,104.98c-14.05,58.54-34.47,113.81-62.34,167.14-50.55,96.72-128.22,180.6-233.2,216.77-119.8,41.27-253.9,12.02-342.71-78.98l-8.19-8.4c-37.75-38.68-70.87-99.39-84.64-151.99-12.28-46.93-16.45-94.46-9.12-142.01l4.56-23.15c-.16-14.34,5.94-27.98,8.56-41.8,1.9-9.99,7.03-19.08,12.89-18.11,2.37.39,7.09,1.54,6.24,5.46-.39,1.71-4.02,2.98-5.11,3.68,6.58,11.9,7.05-4.45,17.52-2.76.35,8.57-1.04,13.92,3.49,11.36,2.13-1.2,3.68-6.73,7.9-6.52,2.98.15,4.4,6.02,6.83,9.16,2.63-4.58,8.01-11.64,13.44-9.42,4.29,4.47,6.87,13.38,13.86,16.03-6.65,21.67-9.61,44.12-9.89,67.57-.42,34.88,8.77,67.12,23.59,98.13,35.22,73.69,108.65,131.01,184.48,159.23,31.48,11.72,62.84,19.92,96.93,19.9,39.39-.03,77.33-8.23,112.81-24.97,67.85-32.01,110.86-91.28,138.8-159.48l24.32-74.72,27.59-100c11.31-40.99,39.73-98.3,70.47-127.39,11.45-10.83,27.22-16.13,41.55-13.1Z"/>
        <path class="cls-4" d="M1823.14,2173.11c-15.06,20.6-43.88,27.26-66.76,17.57-17.47-7.4-25.45-25.83-19.09-43.06,5.89-15.96,19.2-26.94,33.61-31.04,17.16-4.87,34.43-1.19,47.32,10.2,13.48,11.92,16.3,30.77,4.92,46.33Z"/>
        <path class="cls-9" d="M1941.22,2029.16c-15.18,10.53-32.92,7.57-43.54-5.62-12.42-15.44-13.47-34.77-5.62-52.81,7.52-17.27,22.91-30.55,42.65-30.19,12.88.24,24.04,9.77,28.25,22.26,8.07,23.94-.66,51.74-21.74,66.36Z"/>
        <g>
          <path class="cls-2" d="M2200.38,865.82c1.17,26.75,1.22,54.48-.09,81.26-.06,50.63-7.52,100.56-16.59,151.35-9.2,51.56-22.84,100.71-40.49,149.85-63.83,177.77-176.59,326.28-332.35,432.51l-60.99,37.04c-51.77,29.01-105.77,49.13-163.58,62.9-72.94,17.36-119.96,61.58-141.61,132.12-2.88,2.72-6.04,1.3-9.47-4.26-4.51-11.3-9.54-11.73-15.09-1.3-4.11,1.42-7.43-1.02-9.99-7.33-7.73,9.92-14.3,9.81-14.3-4.5-8.68,8.98-14.16,8.84-16.44-.44,8.61-7.26-.2-9.22-5.18-1.11-19.18,60.97-25.8,126.12-13.38,191.57,29.8,157.01,163.73,279.11,326.67,280.18,221.19,1.45,358.91-203.91,404.27-399.9l19.43-104.83c4.21-34.12,10.31-68.79,30.48-99.48,2.56-3.89,9.21-4.1,13.66-3.4,36.86,7.78,40.26,80.96,42.2,119.07,2.64,51.78-.61,102.08-7.05,153.41-14.97,119.34-58.26,233.89-130.77,329.95-35.63,47.2-78.55,88.09-126.71,122.2-93.67,66.33-205.76,100.65-320.83,95.83-65.29-2.74-128.75-16.01-189.39-39.59-90.86-35.34-169.07-95.47-225.5-175.02-28.01-39.49-49.12-82.96-64.15-129.07-17.41-53.45-23.71-107.98-25.95-163.51-.75-18.74-17.65-32.25-33.37-34.51-19.36-2.78-33.26,8.15-42.12,24.86-44.36,83.62-132.83,169.54-203.82,233.96-30.82,27.97-62.21,53.46-98.86,73.58-41.34,22.7-85.39,37.98-131.91,46.52-47.82,8.77-95,14.95-142.65,14.91-17.95,1.14-36.51,1.17-54.48-.04-23.71-.02-47.75-3.62-70.57-11.56-24.54-8.54-35.58-35.22-24.11-57.99,5.86-11.64,13.99-20.64,23.7-28.81l31.02-26.07c21.16-17.78,45.41-30.08,71.68-39.23l73.01-21.51c35.72-10.52,70.65-20.3,103.94-36.95,38.78-19.39,73.05-42.99,105.1-71.99,76.37-69.12,120.61-161.68,141.65-261.81,8.57-40.78,11.67-97.39-23.94-121.26-21.18-14.2-47.44-10.37-67.24,4.7-10.68,8.13-18.43,17.98-26.79,28.63-18.13,23.13-35.65,45.62-57.24,65.75-38.78,36.16-82.68,64.31-132.79,81.74-27.86,9.69-54.88,14.63-84.2,17.75l-101.87,10.84c-68.69,11.35-120.93,39.11-161.62,96.07l-29.17,48.67c-7.73,12.9-16.87,21.76-31.79,25.66-17.81,4.65-37.37.31-48.43-15.43-20.16-28.68-18.9-73.1-11.42-107.9,14.87-69.26,49.2-132.34,98.54-183.24,39.76-41.02,88.94-70.17,143.46-87.27,50.95-15.97,97.83-31.6,141.9-62.33,22.8-15.9,43.64-32.65,62.74-52.72,67.44-70.87,105.29-162.81,108.01-260.76l.43-96.95c-.26-53.16-.7-106.22-1.33-159.19l-.08-40.4c-1.17-109.17-1.21-222.44.04-331.7l.77-102.37c.12-15.79,2-29.86,4.29-45.5,16.34-111.27,70.89-206.62,148.78-286.05l9.81-10,20.89-19.68c35.8-31.3,73.82-58.66,115.38-82.54,124.43-71.48,275.03-107.85,417.94-108.43l43.63-.18,33.14,1.56c52.37,2.46,103.48,9.91,154.74,22.06,136.83,32.44,263.17,97.68,366.92,192.47l52.7,52.58c50.81,55.44,92.65,117.81,123.41,186.74,23.22,52.03,40.74,105.32,53.5,160.8,10.95,47.62,16.58,94.44,21.04,142.65l.8,26.4Z"/>
          <path class="cls-6" d="M632.6,1067c-.4-.24-.99-.55-1.36-1.96v-326.38c0-2.02.61-2.68,1.4-3.35l-.04,331.7Z"/>
          <path class="cls-6" d="M634.01,1266.58c-.68-.62-1.26-1.52-1.27-3.23l-.07-155.96c.99.32,1.66,1.2,1.65,3.1l-.32,156.08Z"/>
          <path class="cls-6" d="M2200.29,947.08l.09-81.26c.79.45,1.41,1.43,1.41,3.06v75.11c0,1.62-.62,2.61-1.5,3.1Z"/>
          <path class="cls-7" d="M454.48,2430.6c-.66.75-1.68,1.28-3.17,1.38h-48.13c-1.5-.1-2.52-.63-3.18-1.42l54.48.04Z"/>
          <g>
            <path class="cls-5" d="M1588.77,1383.08c-81.84,29.44-168.61,28.63-249.11-1.5-65.27-24.42-121.71-65.38-165.84-119.19-117.39-143.16-128.37-345.96-24.98-500.19,14.15-21.1,28.96-40.62,47.21-59.21,68.93-70.2,150.7-110.54,249.42-119.32l39.38-.19c68.45,2.9,133.68,23.92,190.85,61.37,26.37,17.28,50.08,36.17,71.56,59,53.59,57.01,87.84,120.75,104.24,197.26,30.8,143.68-14.42,292.63-120.65,394.43-40.21,38.54-88.52,68.27-142.08,87.54Z"/>
            <g>
              <path class="cls-11" d="M1512.78,1317.69c-92.55,14.18-184.09-16.89-251-80.33-46.66-44.25-78.55-100.1-94.28-162.46-14.54-57.66-14.13-115.81,2.2-173.01,18.88-66.12,55.42-123.69,108.47-167.74,49-40.68,109.2-66.31,173.65-70.08,175.1-10.26,318.89,132.63,329.44,303.88,3.09,50.25-4.66,98.03-22.72,144.71-19.4,50.15-49.03,94.13-89.23,129.85-44.31,39.37-96.73,66.02-156.54,75.18Z"/>
              <g>
                <circle class="cls-3" cx="1468.49" cy="987.22" r="209.76"/>
                <circle class="cls-10" cx="1546.44" cy="902.99" r="53.73"/>
              </g>
            </g>
          </g>
        </g>
      </g>
    </g>
  </g>
</svg>