<svg xmlns="http://www.w3.org/2000/svg" viewBox="0 0 100 100" role="img" aria-label="Data Privacy Stack Inkey mark">
  <path fill="#030F3C" d="M14 53c0-23.2 17.1-41 39.6-41C75.7 12 91 28.8 91 52.3c0 22.2-15.9 38-39.2 38-6.7 0-12.8-1.2-18.1-3.6-5.8 1.7-12 1.8-18.3.5 2.4-4.2 3.8-8.2 4.2-12.1C16 68.9 14 61.5 14 53Z"/>
  <path fill="#172144" d="M20.6 32.6C27.2 19.9 39.7 12 54 12c19.1 0 33.4 12.8 36.4 32.3-8.3-10.9-21.6-17.8-37-17.8-12.8 0-24.3 2.1-32.8 6.1Z" opacity=".72"/>
  <circle cx="52" cy="50" r="23" fill="#FFFFFF"/>
  <path fill="#FFFFFF" d="M31.8 62.3c6.4 6.9 15.3 10.9 25 10.9 7.4 0 14.1-2.2 19.9-6.1-5.8 8.8-15.2 13.9-26.2 13.9-8.3 0-15.9-2.7-22.2-7.8 2.2-3.1 3.4-6.8 3.5-10.9Z"/>
</svg>
