<?xml version="1.0" encoding="utf-8"?>
<!-- Generator: Adobe Adobe Illustrator 29.2.0, SVG Export Plug-In . SVG Version: 6.00 Build 0)  -->
<svg version="1.1" id="Layer_1" xmlns="http://www.w3.org/2000/svg" xmlns:xlink="http://www.w3.org/1999/xlink" x="0px" y="0px"
	 viewBox="0 0 612 792" style="enable-background:new 0 0 612 792;" xml:space="preserve">
<style type="text/css">
	.st0{fill:#FEFEFF;}
	.st1{fill:#05053C;}
	.st2{fill:#0A0C42;}
	.st3{fill:#04073D;}
	.st4{fill:#181F4B;}
	.st5{fill:#040439;}
	.st6{fill:#50CEFF;}
	.st7{fill:#57D1FF;}
	.st8{fill:#5BD3FF;}
	.st9{fill:#3CBBFE;}
	.st10{fill:#88E9FE;}
	.st11{fill:#38B2FF;}
	.st12{fill:#0147FE;}
	.st13{fill:#0101FC;}
	.st14{fill:#0E66FF;}
	.st15{fill:#0154FE;}
	.st16{fill:#3FBFFF;}
	.st17{fill:#902FFF;}
	.st18{fill:#1871FE;}
	.st19{fill:#6B32FD;}
	.st20{fill:#42C6FE;}
	.st21{fill:#5301FB;}
	.st22{fill:#0038FE;}
	.st23{fill:#065EFF;}
	.st24{fill:#4101F9;}
	.st25{fill:#3AA2FF;}
	.st26{fill:#418CFF;}
	.st27{fill:#7D15FF;}
	.st28{fill:#2501EC;}
	.st29{fill:#3900F7;}
	.st30{fill:#200EF7;}
	.st31{fill:#98EAF8;}
	.st32{fill:#7722FE;}
	.st33{fill:#2685FB;}
	.st34{fill:#2D03F3;}
	.st35{fill:#042CF7;}
	.st36{fill:#309DFF;}
	.st37{fill:#7746FF;}
	.st38{fill:#34A6FE;}
	.st39{fill:#207AFE;}
	.st40{fill:#F9F9FA;}
	.st41{fill:#6E52FF;}
	.st42{fill:#E9D5F7;}
	.st43{fill:#1C96C6;}
	.st44{fill:#7E2EFD;}
	.st45{fill:#7E7FFB;}
	.st46{fill:#889EFA;}
	.st47{fill:#5A98FF;}
	.st48{fill:#E0C4F7;}
	.st49{fill:#AA53FC;}
	.st50{fill:#C8A2FB;}
	.st51{fill:#51A9F6;}
	.st52{fill:#AEB7FA;}
	.st53{fill:#0202E9;}
	.st54{fill:#39ADFF;}
	.st55{fill:#014ED7;}
	.st56{fill:#75E0FF;}
	.st57{fill:#6054FF;}
	.st58{fill:#5078FF;}
	.st59{fill:#5FD6FF;}
	.st60{fill:#49CAFF;}
	.st61{fill:#477FFF;}
	.st62{fill:#4B41F8;}
	.st63{fill:#575FFF;}
	.st64{fill:#546EFF;}
	.st65{fill:#534BFF;}
	.st66{fill:#66DAFF;}
	.st67{fill:#FCFFFF;}
	.st68{fill:#7FE6FF;}
	.st69{fill:#0043DB;}
	.st70{fill:#1251FF;}
	.st71{fill:#1F67FB;}
	.st72{fill:#0D5EFE;}
	.st73{fill:#7F3FFF;}
	.st74{fill:#3D97FF;}
	.st75{fill:#3A92FF;}
	.st76{fill:#3785FF;}
	.st77{fill:#2C90FF;}
	.st78{fill:#4B53FF;}
	.st79{fill:#4C68FF;}
	.st80{fill:#4673FF;}
	.st81{fill:#6CDCFF;}
	.st82{fill:#3AB6FE;}
	.st83{fill:#2B7EFE;}
	.st84{fill:#3879FF;}
	.st85{fill:#2872FF;}
	.st86{fill:#3464FF;}
	.st87{fill:#3A69FC;}
	.st88{fill:#4260FF;}
</style>
<g>
	<g>
		
		<path class="st1" d="M512.15,188.84c7.78,17.73,13.1,35.71,14.54,54.7c2.05,27.08-2.44,53.37-11.43,78.71
			c-5.68,16-13.65,30.96-23.82,45.01c-11.75,16.25-26.24,29.27-42.54,39.99c-15.78,10.38-33.55,17.44-52.88,18.41
			c-11.75,0.59-22.31,3.75-29.16,13.54c-6.3,9-9.33,19.78-6.56,30.57c3.23,12.55,7.72,24.86,12.57,36.91
			c12.36,30.7,17.4,61.28,3.03,92.96c-8.27,18.23-20.01,32.5-38.57,40.68c-1.17,0.52-2.47,1.11-3.27,2.05
			c-6.62,7.75-13.51,15.32-19.48,23.55c-2.21,3.05-2.74,7.67-3.07,11.65c-1,12.15-9.54,19.41-21.48,17.65
			c-14.31-2.11-23.86-9.95-29.89-23.18c-1.53-3.36-6.88-4.97-10.43-7.44c-5.82-4.05-12.83-7.15-17.11-12.45
			c-5.89-7.31-9.58-16.36-14.47-24.52c-1.6-2.67-3.53-5.56-6.07-7.19c-34.18-21.9-44.78-72.1-29.38-105.06
			c6.51-13.93,13.47-28.03,17.15-42.82c4.75-19.05,8.64-38.83,8.99-58.36c1.16-64.93,0.43-129.89,0.72-194.84
			c0.08-18.85,2.46-37.35,13.2-53.72c1.12-1.71,1.48-3.92,2.57-6.16c1.19-0.79,2.13-1.21,2.2-2.69c-0.01-0.58,0.06-0.81,0.48-1.18
			c0.79-0.36,1.17-0.66,1.59-1.42c0.11-0.73,0.24-1.06,0.78-1.44c1.66-0.58,2.61-1.43,2.51-3.4c11.19-14.61,25.16-25.09,41.57-33.36
			c22.05-11.12,45.29-11.13,68.78-10.96c20.92,0.15,41.87,0.32,62.77,1.26c19.94,0.89,37.36,8.87,54.19,19.49
			c13.94,8.8,25.11,20.15,35.16,32.61c6.07,7.52,9.9,16.83,14.82,25.79C510.7,185.96,510.69,187.49,512.15,188.84z"/>
		<path class="st2" d="M156.81,383.12c7.68,10.78,6.8,27.32-1.17,36.96c-10.31,12.47-27.19,14.79-37.7,11.1
			c-21.31-7.48-27.08-31.72-17.54-47.77c8.23-13.83,29.83-25.21,47.33-10.24c2.24,1.92,4.68,3.6,7.11,5.84
			C154.4,381.08,155.5,381.93,156.81,383.12z"/>
		<path class="st2" d="M145.11,450.97c2.86-7.11,8.39-10.21,15.75-11.29c5,0.47,9.35,1.03,8.93,7.66c-0.55,0.98-1.05,1.36-2.13,1.57
			c-0.75-0.04-1.04-0.1-1.73-0.35c-2.06-1.36-3.86-1.58-6.14-0.79c-0.84,0.44-1.32,0.69-2.16,1.13c-2.1,0.94-3.84,1.69-5.4,3.46
			c-1.3,1.53-2.08,2.9-2.81,4.75c-0.47,1.35-0.68,2.35-0.21,3.76c0.58,1.91,1.04,3.44,2.34,5.02c0.47,0.49,0.66,0.7,1.12,1.2
			c1.4,1.89,2.78,3.15,5.08,3.83c1.24,0.24,2.07,0.44,3.33,0.7c6.91,0.29,11.03-2.97,12.66-10.04c0-1.61,0.06-2.78-0.02-4.39
			c0.01-2.25-0.75-3.88-1.33-6.48c0.14-1.2,0.31-1.46,0.9-1.98c2.06-0.9,3.62-0.59,5.53,0.46c5.69,9.12,5.23,14.91-1.44,23.67
			c-4.52,5.93-12.53,7.95-20.52,6.28c-6.34-1.32-10.1-4.87-12.54-10.94c-0.85-1.48-0.53-2.72-1.07-4.19
			c-0.55-1.77-0.8-3.22-0.82-5.05C144.23,456.43,144.6,453.87,145.11,450.97z"/>
		<path class="st2" d="M190.65,322.21c6.31,7.47,5.89,15.89,2.59,23.3c-4.74,10.65-13.6,16.86-26.36,16.87
			c-2.02-1.08-3.83-1.08-5.78-1.67c-0.4,0.16-0.53,0.12-0.6,0.13c0.15-1.42-0.97-2.69-0.39-4.64c0.86-1.97,2.18-2.17,4.08-2.1
			c7.77,1.69,13.17-1.68,18.23-6.94c0.41-0.59,0.56-0.83,0.93-1.44c0.64-1.08,1.06-1.81,1.48-2.99c0.73-2.82,1.32-5.24,1.16-8.17
			c-0.31-1.79-0.47-3.19-1.06-4.94c-0.49-1.54-0.8-2.69-1.18-4.3c-0.07-0.78-0.06-1.1,0.1-1.88c0.5-1.03,0.97-1.47,2.03-1.96
			C187.7,321.12,189.01,321.25,190.65,322.21z"/>
		<path class="st3" d="M161.13,354.62c-0.06,1.98-0.18,3.54-0.51,5.66c-9.8-2.41-15.31-9.05-17.45-19.15
			c0.17-0.71,0.28-0.93,0.17-1.45c-0.3-2.53-0.38-4.76-0.29-7.53c1.79-1.9,1.72-3.88,2.14-6.1c0.61-1.61,1.11-2.84,1.77-4.43
			c1.32-1.92,3.3-2.45,4.65-4.28c0.08-0.39,0.35-0.16,0.19-0.25c0.41-0.01,0.84-0.22,1.29-1.05c0.81-0.95,1.5-1.52,2.52-2.15
			c2.01,0.62,3.65,1.33,5.3,2.9c0.4,0.62,0.51,0.89,0.56,1.61c-1.7,2.49-3.99,3.85-5.93,6.21c-3.71,3.25-4.7,7.17-4.84,11.85
			c0.11,1,0.17,1.56,0.3,2.55c0.27,3.31,1.55,5.69,3.86,8.02c1.06,1.1,1.78,1.95,2.79,3.09c0.8,0.94,1.32,1.57,2.2,2.44
			C160.53,353.25,160.84,353.71,161.13,354.62z"/>
		<path class="st2" d="M201.02,386.85c-2.12,11.31-8.83,15.77-19.12,13.3c-6.16-1.48-10.04-9.67-7.87-17.58
			c1.22-1.45,2.34-1.49,3.9-0.69c0.48,0.53,0.62,0.77,0.85,1.43c0.17,1.69-0.48,2.99,0.39,4.58c1.16,1.6,2.29,2.7,3.9,3.9
			c7.29,2.2,9.08,0.95,10.33-7.17c0.22-1.09,0.47-1.68,1.14-2.6C198.84,380.78,200.61,382.6,201.02,386.85z"/>
		<path class="st4" d="M161.99,317.56c-2.5-1.1-4.19-2-5.95-3.32c5.49-5.92,12.27-5.5,19.52-3.99c-0.53,2.76-2.23,4.24-4.65,5
			c-0.87,0.27-1.9-0.29-2.62,0.57c0.71-0.68,1.61-0.3,2.41-0.4c0.91-0.11,1.68,0.17,2.33,1.37c-1.31,2.19-3.24,2.08-5.59,2.06
			C165.57,318.59,164.21,318.08,161.99,317.56z"/>
		<path class="st3" d="M173.04,317.45c-1.16-0.7-2.13-1.07-3.12-1.4c-0.77-0.26-1.56-0.47-2.34-0.7c0.77-0.26,1.63-0.37,2.28-0.8
			c1.75-1.15,3.42-2.43,5.58-3.8c1.48,0.12,2.49,0.37,3.74,0.95c1.34,2.58,3.6,3.07,5.98,4.12c0.65,0.64,0.99,1,1.64,1.56
			c0.54,0.35,0.76,0.52,1.28,0.98c0.47,0.44,0.66,0.57,0.96,1.03c-0.29,1.66-1.66,1.82-2.9,2.85c-0.72,0.43-1.05,0.65-1.46,1.24
			c-0.34,0.47-0.53,0.67-1.15,0.83c-1.4-0.56-2.26-1.27-3.59-2c-0.56-0.37-0.77-0.53-1.27-0.98c-0.63-0.66-0.99-1.03-1.69-1.59
			C175.55,318.87,174.25,318.61,173.04,317.45z"/>
		<path class="st4" d="M179.12,449.06c-1.79,0.43-3.7,0.42-6.17,0.47c-1.78,0.41-2.75-0.04-3.82-1.2c0.26-5.44-3.32-6.84-7.47-8.27
			C169.5,438.18,174.29,443.32,179.12,449.06z"/>
		<path class="st5" d="M181.63,375.51c0.24-0.41,0.13-0.95,0.33-1.14c1.33,1.05,2.53-0.23,4.15-0.18c1.69-0.05,2.93,0.27,4.51-0.56
			c2.72,1,5.04,2.23,7.54,3.89c-0.47,2.24-1.95,2.92-4.18,3.28c-1.44,0.01-2.34-0.24-3.61-0.81c-1.62-0.88-2.87-1.39-4.73-0.8
			c-1.01,0.17-1.59,0.17-2.63-0.01c-0.71-0.28-0.97-0.45-1.48-1.02C181.14,377.14,181.18,376.52,181.63,375.51z"/>
		<path class="st4" d="M181.77,375.15c0.1,0.65,0.11,1.35,0.13,2.57c0.21,0.73,0.4,0.94,0.69,1.56c-0.04,1.97-0.97,3.05-2.44,4.25
			c-0.65,0.3-0.93,0.37-1.61,0.26c-1.39-0.66-2.38-1.15-3.82-1.65c0.87-2.2,2.18-4.38,3.95-6.56c0.84-0.13,1.23-0.26,2.22-0.33
			C181.5,375.32,181.67,375.2,181.77,375.15z"/>
		<path class="st4" d="M192.22,379.95c1.83-0.84,3.48-1.26,5.63-1.85c1.57,2.64,2.64,5.45,3.57,8.72c-2.02-1.23-3.88-2.93-6.2-4.66
			C193.21,382.53,192.5,381.64,192.22,379.95z"/>
		<path class="st4" d="M144.7,450.85c-0.18,2.34-0.66,4.98-1.57,7.68C143.27,456.11,143.83,453.63,144.7,450.85z"/>
		<path class="st4" d="M185.35,315.7c-1.92-0.62-3.94-1.65-5.96-3.18C181.35,313.11,183.3,314.2,185.35,315.7z"/>
		<path class="st2" d="M144.94,325.94c-0.03,1.65-0.43,3.6-1.28,5.6C143.67,329.82,144.12,328.03,144.94,325.94z"/>
		<path class="st4" d="M157.15,383.02c-1.48-0.15-2.91-0.71-4.34-1.27c0.43-0.73,0.85-1.45,1.71-2.24
			C155.7,380.51,156.45,381.56,157.15,383.02z"/>
		<path class="st4" d="M188.68,375.23c-2.02,0.18-3.74-0.03-5.99-0.65c1.34-0.89,3.21-1.38,5.4-1.69
			C188.9,373.56,189.09,374.15,188.68,375.23z"/>
		<path class="st2" d="M151.28,317.02c-0.78,1.35-1.98,2.78-3.67,4.22C148.38,319.86,149.62,318.48,151.28,317.02z"/>
		<path class="st4" d="M512.44,188.72c-0.87-0.79-1.74-2.01-2.42-3.66C510.97,185.84,511.7,187.06,512.44,188.72z"/>
		<path class="st4" d="M186.33,322.54c0.26-0.9,1.05-1.8,2.32-2.76c1.1,0.63,1.72,1.33,2.36,2.38
			C189.65,322.53,188.25,322.54,186.33,322.54z"/>
		<path class="st4" d="M232.55,149.37c0.77,0.26,1.37,0.9,1.97,1.55c-1,0.6-1.99,1.21-3.44,1.77
			C231.21,151.68,231.79,150.72,232.55,149.37z"/>
		<path class="st3" d="M161.04,361.11c1.43-0.1,3.21,0.04,5.16,0.63C164.7,361.9,163.05,361.62,161.04,361.11z"/>
		<path class="st4" d="M227.14,156.63c0.87,0.34,1.45,0.86,2.02,1.38c-0.82,0.43-1.65,0.87-2.97,1.27
			C226.09,158.42,226.47,157.61,227.14,156.63z"/>
		<path class="st2" d="M188.78,375.59c-0.38-0.53-0.38-1.1-0.37-2.1c0.6-0.46,1.2-0.48,2.19-0.31
			C190.39,374.1,189.78,374.83,188.78,375.59z"/>
		<path class="st4" d="M142.9,464.15c0.53,0.6,0.97,1.65,1.38,3.16C143.77,466.71,143.29,465.66,142.9,464.15z"/>
		<path class="st4" d="M188.34,318.31c-0.38,0.28-0.71,0.09-1.09-0.49C187.51,317.7,187.91,317.83,188.34,318.31z"/>
		<path class="st4" d="M229.38,154c0.13,0.3-0.1,0.74-0.68,1.34C228.57,155.03,228.8,154.59,229.38,154z"/>
		<path class="st2" d="M143.02,339.71c0.25,0.01,0.41,0.34,0.39,0.81C143.13,340.44,143.03,340.24,143.02,339.71z"/>
		<path class="st5" d="M181.37,374.92c-0.26,0.45-0.65,0.49-1.64,0.6C179.83,375.22,180.53,374.87,181.37,374.92z"/>
		<path class="st2" d="M152.88,315.75c0.09,0.32-0.18,0.73-0.83,1.2C151.95,316.61,152.23,316.22,152.88,315.75z"/>
		<path class="st6" d="M442,136.45c4.64,2.49,8.84,5.14,13.27,8.15c3.1,7.63,2,11.81-4.18,17.43c-1.77,1.61-3.91,2.63-6.35,4.14
			c-1.78,0.99-3.28,1.46-4.75,1.29c-13.21-1.58-20.08,6.01-24.99,17.3c-3.81,3.29-7.65,5.47-12.21,6.53
			c-8.65,2.02-15.24,7.86-22.45,12.55c-14.46,9.4-29.49,17.88-43.99,27.23c-10.23,6.6-18.29,15.64-27.78,23.05
			c-3.21,2.5-6.38,5.17-9.77,7.33c-11.88,7.6-22.48,16.66-32.27,26.75c-4.36,4.5-7.74,9.79-11.96,14.42
			c-5.58,6.12-13.41,7.45-20.45,10.42c-2.24,0.94-4.65-0.27-6.45-2.82c-0.55-4.9-0.34-9.34-0.27-14.27
			c0.98-3.21,2.88-2.91,4.67-1.71c3.64,2.46,6.53,0.82,9.39-1.39c0.69-0.53,1.41-1.05,1.91-1.74
			c11.49-16.01,27.62-27.14,42.11-39.99c0.81-0.72,1.55-1.59,2.52-2.02c11.14-4.9,18.03-15.54,27.96-21.48
			c19.33-11.58,33.94-30.15,56.21-37.3c5.73-1.84,9.72-7.03,15.05-9.98c4.72-2.61,9.04-5.84,14.59-6.6c1.49-0.2,2.95-0.96,3.95-2.11
			c8.57-9.94,20.36-15.84,30.4-23.94C440.27,144.4,438.48,139.61,442,136.45z"/>
		<path class="st7" d="M442.06,136.12c-0.32,15.98-15.37,18.72-24.21,27.11c-3.23,3.06-6.51,6.07-9.86,9
			c-1.26,1.09-2.69,2.43-4.21,2.7c-10.11,1.83-17.47,8.44-25.68,13.78c-8.56,5.58-18.14,9.58-26.79,15.04
			c-6.44,4.07-12,9.52-18.16,14.05c-6.64,4.88-13.88,9-20.28,14.18c-19.21,15.57-38.26,31.32-57.07,47.37
			c-5.31,4.53-9.37,10.48-14.34,15.44c-3.93,3.93-8.21,4.35-12.41-0.68c-2.92-3.38-1.59-7.14-1.55-10.68
			c0.03-2.89,2.26-3.68,4.6-2.49c3.91,2,6.38,0.16,9.08-2.42c12.62-12.06,25.62-23.57,39.67-34.08c10.5-7.85,20.83-16.1,31.43-23.84
			c22.06-16.13,44.24-32.1,67.58-46.49c11.45-7.06,23.55-13.63,33.27-23.35c1.7-1.71,3.83-2.75,5.95-3.85
			c6.13-3.18,12.14-6.56,16.42-12.83c1.43-0.17,2.38,0.03,3.72,0.42C440.29,135.22,440.99,135.59,442.06,136.12z"/>
		<path class="st8" d="M436.3,134.5c-3.25,3.39-5.77,7.21-9.27,9.58c-24.08,16.29-48.73,31.76-72.48,48.5
			c-24.47,17.24-48.4,35.3-72.07,53.63c-14.71,11.39-28.46,24.01-42.76,35.94c-1.36,1.13-4.31,2.27-5.29,1.6
			c-5.87-3.98-6.18-0.72-5.85,3.97c0.12,1.71,0.02,3.44,0.02,5.75c0,5.79,0,11-0.01,16.81c0.51,1.25,0.65,1.97-0.05,3.13
			c-0.81,0.25-1.17,0.13-1.69-0.56c-0.22-12.94-0.16-25.33-0.19-38.25c0-0.89,0-1.24,0.15-2.08c0.3-0.64,0.47-0.91,0.62-0.91
			c13.88,0.65,22.25-9.2,30.9-17.35c9.97-9.39,21.46-16.62,32.01-25.13c18.27-14.75,38.48-26.88,56.69-41.76
			c6.98-5.7,15.68-9.12,23.06-14.32c15.48-10.89,30.04-23.07,45.99-33.36c3.85-2.48,6.31-6.45,9.35-10.4
			c1.37-0.38,2.34-0.37,3.69,0.03c0.82,0.3,1.18,0.46,1.66,1.01c0.83,1.6,2.17,1.02,3.52,1.62c0.32,0.29,0.46,0.34,0.44,0.41
			c0.41,0.24,0.85,0.44,1.5,0.92C436.5,133.8,436.54,134.03,436.3,134.5z"/>
		<path class="st9" d="M492.44,188.85c2.16,3.86,3.93,7.44,5.62,11.48c-8.82,0.62-15.17,5.3-21.07,11.17c-2.3,2.29-5.67,3-8.87,3.64
			c-1.48,0.3-3.23,0.04-4.42,0.83c-12.87,8.56-28.61,11.72-40.7,21.66c-2.91,2.39-6.02,4.44-9.57,5.16
			c-5.31,1.08-8.82,4.11-11.95,8.72c-4.06,0.45-7.02-0.91-9.67-4.03c-2.76-6.37-1.28-11.74,4.22-15.39c4.33-2.88,9.04-5.22,14.3-5.6
			c4.85-0.34,8.48-2.47,11.82-5.81c5.21-5.21,10.73-9.68,18.89-9.72c4.29-0.02,7.9-2.54,11.25-5.64c5.52-5.1,11.45-9.84,19.55-10.43
			c3.68-0.27,6.13-2.93,8.63-5.3C484.07,186.19,487.87,185.38,492.44,188.85z"/>
		<path class="st10" d="M309.76,123.84c2.21-0.28,4.05-0.51,6.44-0.86c0.84-0.21,1.14-0.31,1.91-0.39c2.07,0.05,3.61,0.35,5.28,1.62
			c-1.71,7.17-7.68,9.1-13.4,10.98c-4.67,1.53-9.48,2.56-13.49,5.62c-2.2,1.68-4.57,3.21-5.49,6.58c-1.12,2.79-2.99,4.22-5.17,5.24
			c-12.01,5.65-20.81,14.87-28.54,25.34c-3.9,5.28-4.94,11.88-8.58,17.78c-3.41,2.21-6.12,4.55-8.93,6.78
			c-2.83,2.25-5.84,4.27-10.27,3.11c-0.7-0.43-0.94-0.66-1.23-1.38c0.83-6.12,2.85-11.49,3.84-17.61c0.17-0.47,0.11-0.98,0.27-1.18
			c7.07-8.15,10.34-18.54,18.54-25.82c9.2-8.16,18.5-16.11,28.72-22.91c4.19-2.79,9.62-3.65,12.5-8.55c0.7-1.19,2.87-0.37,4.73-0.87
			c3.87-1.2,7.35-2.13,11.34-3.05C308.95,124.14,309.17,124.02,309.76,123.84z"/>
		<path class="st11" d="M400.84,252.31c1.63-6.26,4.94-9.12,11.25-11c6.63-1.97,11.93-8.03,18.38-11.1
			c12.95-6.17,26.37-11.35,39.42-17.33c4.16-1.91,8.04-4.72,11.51-7.74c4.65-4.04,9.29-6.87,16.11-4.36
			c0.56,0.22,0.63,0.43,0.71,0.97c0.58,0.87,0.62,1.61,0.9,2.65c0.15,0.33,0.48,0.77,0.53,1.04c0.38,0.99,0.49,1.77,0.88,2.85
			c0.23,0.32,0.44,0.91,0.41,1.23c-0.62,2.26-2.25,2.95-3.97,3.19c-7.6,1.05-13.98,4.09-18.47,10.56c-0.6,0.87-1.67,1.34-3.11,1.97
			c-2.57,0.71-4.75,0.79-6.88,0.61c-7.31-0.61-12.48,2.36-15.85,9.37c-10.83,5.13-19.97,12.32-30.16,17.69
			c-3.99,2.1-7.81,4.44-11.61,7.66C405.14,260.66,402.73,257.05,400.84,252.31z"/>
		<path class="st12" d="M490.88,333.15c-2.02,4.51-3.98,8.53-6.36,12.74c-17.04-0.85-29.42,8.1-41.26,17.9
			c-4.59,3.8-9.77,6.85-13.6,11.75c-2.82,3.61-4.69,7.06-4.75,12.03c-8.65,5.91-17.69,9.68-28.39,9.69
			c-2.64-5.61-1.55-8.42,5.16-13.1c3.55-2.48,7.25-4.66,8.88-9.56c4.96-3.53,9.11-7.23,12.5-11.75c0.52-0.69,0.99-1.49,1.69-1.94
			c11.85-7.6,21.55-18.52,35.43-23.01c4.57-1.48,8.43-4.21,12.31-6.94C478.34,326.84,485.14,327.52,490.88,333.15z"/>
		<path class="st13" d="M395.4,396.18c9.67-2.67,18.88-5.57,28.5-8.7c5.52-5.46,12.14-8.63,18.03-12.76
			c5.22-3.65,8.11-10.24,15.49-11.73c4.26,0.24,8.12-0.02,12.05,1.96c-8.19,8.3-16.07,17.13-25.42,23.94
			c-17.62,12.85-37.56,19.86-59.69,20.71c-5.03,0.2-9.93,3.66-15.33,5.73c-1.59-0.42-2.82-0.88-3.75-2.47
			c-0.48-2.08-0.17-3.75,1.41-4.3c4.15-1.45,5.34-5.41,8.03-8.74c4.12-1.97,8.21-2.15,12.59-3.31
			C390.17,396,392.52,395.44,395.4,396.18z"/>
		<path class="st14" d="M503.8,297.99c-0.23,1.32-0.33,2.17-0.57,3.42c-0.47,1.07-0.48,1.81-0.85,2.83
			c-0.36,0.99-0.55,1.66-1.01,2.55c-3.29,2.72-6.99,3.34-10.64,3.15c-7.34-0.38-13.16,3.02-19.34,6.26
			c-13.5,7.07-26.22,15.59-40.67,21.91c-3.86,0.79-6.15,2.96-8.16,5.57c-3.79,4.92-9.41,7.33-14.53,10.39
			c-1.91,1.14-4.1,1.26-6.17-0.93c-0.56-2.25-0.08-4.06,1.19-5.14c4.41-3.74,7-8.96,11.42-13.23c1.22-0.58,0.52,0.2,1.03-0.42
			c7.3-8.91,18.99-10.97,27.64-17.73c5.8-4.53,11.98-8.12,18.99-10.61c7.48-2.66,13.48-8.3,20.82-11.45
			C490.67,291.23,497.29,294.02,503.8,297.99z"/>
		<path class="st15" d="M491.15,333.31c-6.62-2.57-12.52-6.37-19.33,0.14c-3.26,3.11-8.23,4.43-12.43,6.54
			c-4.01,2.02-8.51,3.41-11.96,6.13c-9.83,7.78-19.2,16.14-28.83,24.16c-1.9,1.58-4.18,2.7-6.75,4.04
			c-3.97-1.57-3.32-5.02-4.07-8.37c0.13-2.65,1.1-4.41,2.82-6.35c5.66-3.97,10.91-7.52,15.11-12.61c3.59-4.34,9.47-5.72,14.07-8.91
			c6.93-4.82,13.04-11.12,22.29-12.03c3.34-0.33,5.98-3.29,8.63-5.43c8.05-6.48,17.31-6.26,27.13-4.9c0.38,0.56,0.39,0.79,0.3,1.34
			c-0.23,0.52-0.34,0.71-0.34,1.22C495.77,323.4,493.63,328.19,491.15,333.31z"/>
		<path class="st16" d="M492.77,188.7c-5.68-1.68-10.18-0.23-13.92,4.71c-1.19,1.57-3.53,3.12-5.4,3.19
			c-9.89,0.41-16.15,6.5-22.74,12.79c-2.53,2.41-7.25,4.3-10.54,3.77c-7.67-1.24-11.41,4.03-15.83,7.92
			c-4.29,3.78-8.21,6.55-14.41,7.31c-7.2,0.89-15.08,3.07-17.71,11.67c-0.51,1.65,0.37,3.73,0.7,6.05
			c-3.19,1.54-5.01-1.15-7.73-2.76c-0.59-0.55-0.8-0.78-1.3-1.42c-0.41-0.7-0.54-1-0.77-1.78c0.67-6.1,3.56-10.77,8.02-13.81
			c6.66-4.54,13.25-9.4,21.64-10.76c5.67-0.92,9.96-4.81,15.06-8.04c1.95-0.57,3.44-0.39,4.94-0.27c13.29,1.1,22.22-6.32,23.6-19.6
			c0.11-1.07,0.3-2.12,1-3.54c2.12-1.93,4.29-1.4,6.4-1.41c5.19-0.03,9.65-1.5,12.27-6.47c1.4-2.66,3.24-4.57,7.03-2.95
			C486.55,178.49,489.63,183.37,492.77,188.7z"/>
		<path class="st17" d="M268.92,659.57c-0.71-1.35-0.99-2.43-1.18-3.92c2.64-4.04,3.16-8.23,3.52-12.94
			c1.31-6.02,4.72-10.55,7.23-15.49c3.96-7.8,9.47-14.7,13.97-22.77c1.19-0.98,2.12-1.41,3.66-1.67c5.31,0.7,10.41-0.8,15.31,2.26
			c2.73,6.06-1.26,10.12-3.58,15.1c-9.53,11.34-17.74,22.98-24.77,35.97C278.01,656.72,274.17,660.15,268.92,659.57z"/>
		<path class="st18" d="M504.01,298.08c-7.77-1.99-14.78-5.82-23.01-0.77c-11.57,7.1-23.68,13.3-35.58,19.87
			c-4.78,2.64-9.73,5-14.33,7.92c-3.65,2.32-6.84,5.35-10.32,7.95c-1.57,1.17-3.35,2.04-5.29,2.73c-2.05-6.34,3.07-9.77,5.37-14.73
			c15.43-7.83,28.59-18.68,44.16-25.33c2.63-1.12,4.44-3.31,6.59-5.76c4.49-1.88,8.18-4.18,11.95-7.27
			c5.61-1.31,10.75-2.77,15.72,0.75c2.08,1.47,4.54,0.23,7.29,0.17C506.13,288.38,505.23,293.03,504.01,298.08z"/>
		<path class="st19" d="M325.15,530.05c-0.27-0.24-0.7-0.62-0.76-0.9c-0.75-3.11-0.75-6.01-1.02-9.38
			c2.23-6.44,6.41-11.18,9.68-16.47c1.87-3.03,4.99-3.92,8.98-3.37c2.62,0.77,3.74,2.55,5.33,4.55c3.28,7.53,8.83,13.29,11.04,20.84
			c0.67,2.29,1.64,4.45,0.12,7.21c-7.49,2.38-13.66,7.6-22.16,6.82c-3.4-1.94-6.29-3.88-9.28-6.25
			C326.67,531.74,326.26,530.88,325.15,530.05z"/>
		<path class="st20" d="M483.42,173.32c-1.71,0.81-4.71,0.93-5.06,1.94c-3.32,9.86-10.78,10.04-19.55,8.7
			c-0.78-0.11-1.05-0.21-1.64-0.62c-0.68-0.77-1.01-1.27-1.5-2.18c-2.77-6.02-7.86-9.48-11.93-14.32c1.35-1.77,2.68-3.23,4.22-4.4
			c5.42-4.13,8.73-9.16,7.52-16.89c8.59,7.76,17.17,16.1,25.86,24.86c0.3,0.79,0.53,1.13,0.99,1.67
			C482.9,172.45,483.18,172.69,483.42,173.32z"/>
		<path class="st21" d="M358.25,532.82c-2.76-6.93-5.56-13.36-8.4-19.78c-1.03-2.32-2.15-4.59-3.28-7.35
			c-1.27-2.86-2.21-5.45-4.64-7.66c-0.46-0.67-0.63-0.95-1.01-1.67c-4.76-10.68-8.24-21.11-5.86-33.06c2.99-2.77,3.7-7.26,8.46-7.64
			c-0.49,21.13,7.64,39.24,16.45,57.52c5.49,11.4,8.1,24.19,11.99,36.93c-2.55,1.85-4.68,0.67-7.25-0.77
			C360.15,544.63,360.23,538.57,358.25,532.82z"/>
		<path class="st22" d="M457.12,363.69c-7.73,6.24-15.03,12.26-22.57,17.96c-2.84,2.14-6.24,3.54-9.81,5.43
			c-4.08-9.37,4.22-13.84,9.06-18.18c8.63-7.73,18.93-13.64,28.75-20c6.31-4.08,13.31-5.7,21.19-3.23
			c-1.13,2.77-2.62,5.14-4.45,7.76c-3.11,3.24-6.45,4.94-10.6,4.52C463.82,357.47,460.8,360.7,457.12,363.69z"/>
		<path class="st23" d="M498.44,315.65c-11.84,0.57-23.3,1.12-32.08,10.38c-0.98,1.03-2.59,1.6-4.01,2.04
			c-15.53,4.89-28.07,14.42-39.86,25.24c-2.96,2.71-6.78,4.48-10.66,6.73c-2.4-3.48-0.17-6.11,2.23-7.56
			c6.28-3.8,10.09-9.81,15.14-15.36c13.19-7.03,26.93-12.47,38.65-20.77c10.14-7.18,20.95-7.86,32.68-9.35
			C500.29,309.75,499.49,312.5,498.44,315.65z"/>
		<path class="st24" d="M294.91,527.42c-1.54,17.54-8.38,32.74-18.06,47.31c-1.65,2.64-4.43,3.26-6.38,5.53
			c-0.64,0.74-0.97,1.19-1.46,2.05c-0.3,0.65-0.41,0.92-0.69,1.6c-0.87,2.45-1.33,4.69-4.51,5.05c-3.02-0.71-3.99-2.76-4.87-5.46
			c-0.54-4.52,2.78-6.72,4.73-10.12c6.23-9.22,13.38-17.37,16.6-28.34c2.1-4.33,3.89-8.28,4.96-13.02
			c1.01-3.68,1.84-6.91,3.75-10.29c2.08-1.82,3.98-2.58,6.65-1.37c0.35,1.74,0.29,3.15,0.05,5.07
			C295.42,526.38,295.24,526.77,294.91,527.42z"/>
		<path class="st25" d="M226.4,416.26c-0.23-1.81-0.28-3.19-0.26-5.09c0.55-1.33,0.51-2.26,0.82-3.58c0.34-2.9,1.21-5.29,3.24-6.55
			c6.91-4.29,11.22-10.89,16.41-17.3c4.38-0.7,6.25,1.71,7.55,4.84c1.04,2.52,1.61,5.3,4.39,7.38c1.29,1.9,1.46,3.55,0.98,5.76
			c-8.96,6.79-15.84,15.6-26.35,20.36c-2.12-0.07-3.64-0.59-5.5-1.57C226.25,419.22,226.34,417.97,226.4,416.26z"/>
		<path class="st26" d="M261.4,435.72c-0.31-1.85-0.42-3.26-0.62-5.19c-2.14-3.13-1.43-6.21-1.52-9.69c0.09-1.29,0.24-2,0.73-3.18
			c7.84-4.62,15.72-8.21,23.25-12.49c1.45-0.83,3.27-0.95,5.32,0.21c2.04,3.72,1.52,7.24,1.14,11.25c-6.1,8.6-11.6,17.06-17.95,24.9
			c-1.48,1.83-3.23,3.51-6.36,3.47C261.53,442.84,262.19,439.26,261.4,435.72z"/>
		<path class="st27" d="M346.96,561.32c-0.31-0.93-0.42-1.4-0.56-2.24c-0.08-0.8-0.25-1.2-0.75-1.79c-2.17-3.97-9.3-3.39-8.06-10.22
			c7.98,2.33,16.09,4.24,24.45,5.25c1.32,0.16,2.3,1.8,3.48,3.44c1.47,3.96,1.07,7.56,0.9,11.68c-1.64,10.77-5.38,20.32-9.23,29.85
			c-0.89,2.2-1.84,4.37-4.85,5.25c-3.24-3.44-1.18-7.24-0.67-10.55c1.37-8.85,0.05-17.09-3.26-25.21
			C347.75,565.2,347.47,563.48,346.96,561.32z"/>
		<path class="st28" d="M306.06,620.65c1.95-4.81,3.8-9.12,5.74-13.9c-0.57-2.89,0.13-5.19,0.89-7.39
			c2.88-8.36,2.71-16.82,0.95-25.88c-0.47-3.05-1.44-5.55-0.05-8.59c1.33-1.13,2.4-1.22,4-0.49c10.75,19.01,7.83,37.47-0.97,55.61
			c-1,2.06-4.29,3-6.95,4.64C307.44,624.21,306.41,622.94,306.06,620.65z"/>
		<path class="st29" d="M351.03,602.27c4.41-9.62,8.41-19.32,12.36-29.05c0.47-1.17,0.63-2.46,1.14-4.15
			c4.7-2.37,4.68,1.58,6.17,4.31c-3.03,19.97-11.86,36.66-26.09,50.49c-0.91,0.89-2.05,1.62-3.2,2.16
			c-0.92,0.42-2.02,0.43-3.04,0.62c0.16-1.11,0.07-2.35,0.52-3.32c2.36-5.04,4.87-10.02,7.55-15.42
			C348.27,605.94,347.76,602.81,351.03,602.27z"/>
		<path class="st30" d="M251.22,481.53c-4.28,11.51-8.96,22.68-13.72,34.3c-0.84,3.09-3.27,4.36-4.94,6.23
			c-2.6,2.9-4.72,5.82-5.13,9.95c-0.39,3.98-2.29,7.29-7.03,8.54c-2.52-1.07-3.24-3.34-5.1-5.21c-1.1-2.77,0.13-4.72,1.26-7.14
			c5.27-8.33,11.51-15.49,15.52-24.6c2.43-5.1,6.54-8.79,7.6-14.62c0.59-2.78,1.38-4.93,3.76-6.72
			C246.15,481.2,248.39,480.3,251.22,481.53z"/>
		<path class="st31" d="M296.74,126.98c-1.55,1.88-3.47,3.96-5.77,5.46c-5.04,3.28-10.68,5.76-15.34,9.48
			c-9.95,7.95-19.75,16.15-28.95,24.94c-3.7,3.54-5.52,9-8.46,13.41c-1.24,1.86-3.16,3.27-5.22,4.94
			c4.71-9.41,8.85-19.66,15.34-28.1c5.67-7.37,13.35-13.73,21.3-18.66C277.76,133.42,287.29,130.67,296.74,126.98z"/>
		<path class="st29" d="M258.96,582.69c1.76,1.77,3.03,3.48,4.74,5.39c1.28,3.65-1.39,5.65-3.14,8.55
			c-3.7,3.58-5.22,7.76-7.01,11.95c-5.19,12.13-6.13,24.33-1.87,37.35c0.4,2.35,0.81,4.21,1.39,6.97c-1.87-0.07-3.9-1.05-6.14-2.4
			c-6.28-7.45-7.48-15.93-7.25-25.34c0.01-6.94,1.88-12.96,4.01-19.43c2.74-5.87,5.34-11.24,8.07-16.54
			C253.21,586.39,255.21,583.76,258.96,582.69z"/>
		<path class="st32" d="M365.07,555.2c-4.26-0.42-8.22-0.93-11.9-2.23c-4.99-1.77-9.76-4.15-15.07-6.33
			c-1.01-2.16-1.57-4.26-2.2-6.82c7.07-2.81,14.2-5.14,21.87-7.49c2.43,4.97,4.33,9.94,6.57,15.24
			C366.46,550,366.7,552.29,365.07,555.2z"/>
		<path class="st33" d="M507.05,242.29c0.48,9.79,0.56,19.89,0.47,30.51c-2.55,2.71-5.56,2.67-7.96,1.37
			c-5.6-3.04-10.61-2.08-16.1,1.19c-4.18-0.28-6.26-3.1-8.97-5.78c1.77-9.9,12.29-16.58,20.97-13.92c9.78,3,9.79,3,10.06-7.37
			c0.04-1.28,0.06-2.56,0.46-4.32C506.3,243.19,506.47,242.89,507.05,242.29z"/>
		<path class="st5" d="M252.16,646.21c-5.08-9.41-7.51-19.11-2.78-29.54c1.63-3.61,1.98-7.79,3.54-11.45
			c1.39-3.25,3.66-6.13,5.91-9.4c4.1-1.45,8.2-1.17,12.23-3.12c3.07,0.1,5.37,1.14,7.79,2.94c-1.38,1.46-3.01,2.5-4.95,3.88
			c-1.33,0.79-2.4,0.73-3.47,0.68c-3.88-0.16-8.13-0.86-8.77,4.79c-0.63,5.52,2.5,7.75,7.86,8.47c-1.56,1.4-3.48,2.53-5.75,4
			c-4.82,1.3-10.6,0.67-9.62,8.47c0.27,0.87,0.46,1.34,0.88,2.11c0.68,0.86,1.2,1.37,1.91,2.2c0.19,1.35,0.17,2.4,0.15,3.98
			c-0.29,2.26-2.16,3.33-1.96,5.67c0.33,1.85,1.62,2.62,2.45,4.19C256.05,644.99,254.35,645.49,252.16,646.21z"/>
		<path class="st34" d="M305.81,620.4c1.31,0.99,2.25,2.23,3.3,3.95c-3.72,8.61-9.13,15.49-16.16,21.15
			c-1.25,1.01-2.44,2.79-2.61,4.34c-1.04,9.12-5.03,18.19-0.86,27.44c0.67,1.49,1.74,2.83,2.76,4.13c0.84,1.06,1.89,1.95,2.85,2.92
			c-1.64,0.17-3.28,0.34-5.25,0.21c-9.15-7.38-12.16-19.06-7.23-28.78C287.62,641.93,296.65,631.37,305.81,620.4z"/>
		<path class="st35" d="M251.73,481.33c-2.32,0.95-4.53,1.36-7.24,1.77c-2.6-2.77-0.67-5.3,0-7.88c1.22-4.76,2.94-9.37,4.35-14.63
			c2.04-13.77,4.07-27.01,6.35-40.76c-0.1-5.87,0.32-11.1,2.75-16.53c0.43-2.24,0.53-4.01,1.06-6.5c0.71-0.54,0.99-0.36,1.57,0.24
			c0.59,1.04,0.82,1.68,1.14,2.85c1.27,5.77,2.03,11.05-0.24,16.75c-0.38,1.18-0.46,1.91-0.62,3.18c-1,3.4-0.24,6.35-0.69,9.7
			C257.28,446.92,254.56,463.86,251.73,481.33z"/>
		<path class="st36" d="M507.51,241.41c-0.13,0.81-0.21,1.06-0.37,1.69c-1.49,1.79-3.33,1.9-4.85,1.14
			c-6.48-3.21-13.36-3.91-20.87-4.06c-2.24-3.22-2.69-6.4-2.23-10.26c6.62-7.5,14.65-9.23,23.1-5.7c2.53,1.06,2.88,3.51,4.46,5.8
			C507.16,233.96,507.36,237.4,507.51,241.41z"/>
		<path class="st34" d="M214.88,534.89c1.88,1.36,3.25,2.76,4.61,4.63c0.98,2.42-0.41,3.29-2.15,4.31
			c-1.31,1.48-2.46,2.77-2.98,4.27c-6.74,19.55-6.92,38.98,1.18,58.92c-1.76-0.3-3.33-1.34-5.06-2.75
			c-4.15-6.88-6.09-14.05-7.11-22.07c-1.75-6.93-1.71-13.34-0.11-20.28C204.79,551.64,207.67,542.49,214.88,534.89z"/>
		<path class="st37" d="M313.91,564.32c0.36,2.71,0.83,4.95,1.31,7.69c-4.14,3.15-8.66,0.56-13.43,1.22
			c-4.37-3.15-2.82-7.76-4.24-11.97c-3.45-7.57-2.05-14.44,1.15-21.67c5.9,1.56,7.98,7.06,10.58,11.66
			C311.44,555.07,313.2,559.37,313.91,564.32z"/>
		<path class="st38" d="M506.99,230.02c-6.49-6.84-15.43-7.24-26.86-0.62c-3.34,0-4.73-1.83-5.56-4.69
			c6.64-8.47,14.81-13.66,25.86-14.68C502.94,216.4,504.98,222.96,506.99,230.02z"/>
		<path class="st39" d="M482.35,275.06c5.49-4.19,10.55-7.42,17.07-2.66c1.63,1.19,4.52,0.66,7.39,0.92
			c0.5,3.08,0.46,6.17,0.32,9.84c-3.56,3.54-6.54,3.61-10.83,1.08c-2.87-1.69-7.45-0.47-11.81-0.56
			C481.8,281.3,481.48,278.5,482.35,275.06z"/>
		<path class="st27" d="M282.43,655.34c-2.24,10.41,0.41,19.61,6.95,28.43c-12.82-2.29-18.83-11.13-20.91-23.95
			C272.97,657.98,277.43,656.67,282.43,655.34z"/>
		<path class="st40" d="M234.83,572.88c5.08-9.36,9.86-18.32,15.01-27.51c2.04-1.31,3.82-1.87,6.34-1.08
			c1.9,1.14,2.19,2.56,2.2,4.59c-4.17,10.13-9.19,19.21-16.18,27.7c-1.21,0.98-2.17,1.39-3.25,1.38
			C235.84,577.94,237.68,573.25,234.83,572.88z"/>
		<path class="st5" d="M216.95,544.42c0.67-1.58,1.4-2.66,2.34-4.09c2.22-2.8,5.7-5.09,6-7.73c0.87-7.7,5.34-12.2,11.71-16.15
			c2.95,2.67,5.48,5.51,7.85,8.86c-8.45,0.02-11.35,1.54-11.79,6.53c-0.23,2.68,1.17,4.87,2.05,7.68c-1.12,1.83-2.29,3.21-3.98,4.68
			c-4.59,1.73-8.67,3.38-12.31,6.58C217.92,548.85,217.47,546.88,216.95,544.42z"/>
		<path class="st24" d="M344.1,455.46c-2.43,2.61-4.71,4.73-7.43,6.91c-2.03-1.24-2.12-3.09-2.3-5.44
			c-0.76-8.96,1.65-16.54,6.41-24.01c1.69-2.44,3.08-4.45,5.42-6.35c3.12-1.65,5.78-2.49,8.5,0.63
			C346.96,435.02,345.99,445.14,344.1,455.46z"/>
		<path class="st41" d="M204.59,560.51c0.39,6.88,0.38,13.41,0.37,20.46c-2.42,3.64-5.44,4.15-9.37,2.23
			c-2.22-6.91-4.02-13.45-5.77-20.51c1.09-1.59,2.39-2.14,4.38-2.41C197.88,559.67,201.02,558.37,204.59,560.51z"/>
		<path class="st42" d="M293.03,604.47c-6.5,12.54-13.34,24.68-20.33,37.25c-3.67-0.22-2.8-2.85-2.18-4.85
			c0.71-2.32,0.98-4.52,0.54-7.35c5.47-9.09,10.76-17.67,16.39-26.57C289.51,602.82,291.23,603.02,293.03,604.47z"/>
		<path class="st43" d="M227.59,407.45c-0.46,1.26-0.64,1.98-1.1,2.95c-0.34-51.16-0.46-102.59-0.48-154.01
			c-0.01-16.13,0.27-32.26,0.71-48.86c3.11,1.7,2.09,4.89,2.56,8.33c0.49,11.78-0.46,22.93-0.02,34.71
			c-0.18,7.24,0.67,13.92-1.48,20.95c-0.38,13.91-0.39,27.32-0.35,41.33c3.12,5.59,1.22,11.11,1.68,16.37
			c0.21,2.35,0.02,4.73,0.09,7.7c0.38,2.62-0.2,4.63,0.07,7.24c0.12,5.42,0.22,10.24-0.03,15.67c0.5,12.88-0.44,25.14-0.04,38.02
			C229.75,401.43,227.69,403.99,227.59,407.45z"/>
		<path class="st44" d="M245.23,604.42c-1.02,6.58-2.37,12.67-3.74,19.3c-3.59,2.2-7.25,2.32-11.42,0.95
			c-0.86-1.7-1.28-3.13-1.64-5.01c1.52-5.58,1.85-10.95,3.89-16.43C236.97,601.09,241.06,601.12,245.23,604.42z"/>
		<path class="st34" d="M314.34,564.76c-5.33-8.37-10.12-16.76-15.23-25.4c0.06-4.31,0.43-8.38,0.96-12.96
			c0.53-0.97,1.01-1.16,1.89-0.81c5.57,12.89,10.84,25.51,16.1,38.61C317,564.71,315.94,564.73,314.34,564.76z"/>
		<path class="st40" d="M197.38,514.3c3.48-8.21,7.11-15.98,11.07-24.11c2.48,0.51,4.78-0.87,7.27,0.37
			c0.68,0.8,0.89,1.37,1.04,2.45c-1.31,7.53-5.21,13.44-8.84,19.99c-2.05,2.95-2.12,6.7-6.1,8
			C199.46,519.25,199.25,516.53,197.38,514.3z"/>
		<path class="st45" d="M312.93,510.76c-4.42-10.08-8.37-19.91-12.61-30.13c-0.8-0.98-0.94-1.65-0.34-2.82
			c2.37-1.69,4.51-1.63,7.19-0.78c4.5,3.92,3.19,9.44,5.36,14.3c1.36,7.1,6.39,12.49,6.01,19.96
			C316.47,512.66,314.91,511.96,312.93,510.76z"/>
		<path class="st46" d="M258.74,516.01c0.53-10.93,1.33-21.33,2.24-32.31c1.49-1.76,3.01-1.89,5.13-0.84
			c3.2,5.23,1.76,10.52,2.02,16.22c-0.18,6.07,1.03,11.7-2.17,17.36C263.29,518.5,261.1,518.53,258.74,516.01z"/>
		<path class="st28" d="M351.55,601.87c-1.42,2.14-2.74,3.79-4.47,5.54c0.52-5.99,1.56-12.06,2.34-18.16
			c0.35-2.71,1.32-6.29,0.05-8.07c-4.36-6.11-2.42-12.75-2.78-19.75C355.4,573.53,355.39,587.24,351.55,601.87z"/>
		<path class="st47" d="M266.92,482.16c-2.04,0.96-3.42,0.95-5.32,0.94c-0.53-15.54-0.54-31.08-0.48-47.23
			c1.18,2.12,2.29,4.84,3.57,7.98c3.97,6.02,1.15,12.62,3.01,19.11C268.27,469.43,268.63,475.31,266.92,482.16z"/>
		<path class="st32" d="M229.67,624.88c3.59-0.57,7.21-0.65,11.31-0.67c2.2,8.36,3.91,16.66,5.68,25.44
			C237.78,644.11,232.58,635.54,229.67,624.88z"/>
		<path class="st48" d="M218.42,551.3c2.38-4.96,5.66-7.96,11.71-6.99c5.48,4.19,4.7,9.41,1.7,13.83c-1.16,1.71-6.13,2.73-7.94,1.66
			C221.37,558.31,220.2,554.56,218.42,551.3z"/>
		<path class="st48" d="M279.46,595.79c-2.63-0.63-4.91-1.51-7.6-2.59c-3.56-1.36-3.31-3.98-3.02-7.1
			c2.26-4.95,4.77-8.81,11.08-7.33c1.79,1.61,3.17,2.88,4.88,4.38c2.04,1.03,1.94,2.43,1.29,4.39
			C283.81,590.51,281.82,593.02,279.46,595.79z"/>
		<path class="st46" d="M219.22,462.19c0.6-2.45,1.2-4.58,2-7.16c0.26-0.72,0.32-0.99,0.58-1.65c0.69-4.62,1.19-8.86,1.81-13.64
			c1.23-5.71,1.23-5.71,6.79-0.75c0.95,1.66,1.17,3.01,1.25,4.91c-0.64,7.86-1.88,15.09-4.41,22.57c-0.46,0.72-0.68,0.98-1.37,1.42
			c-2.77-0.16-4.84-1.12-7.23-2.51c-0.36-0.6-0.38-0.85-0.23-1.45C218.78,463.22,218.99,462.86,219.22,462.19z"/>
		<path class="st48" d="M270,613.3c-3.08-0.4-7.93-0.5-8.6-2.22c-1.29-3.33-1.66-8.87,0.31-11.05c1.73-1.92,7.16-0.52,11.42-0.37
			C276.04,605.16,274.06,609.28,270,613.3z"/>
		<path class="st48" d="M310.6,631.29c3.59-3.8,7.24-4.9,11.09-1.58c3.77,3.25,3.01,7.41,0,10.16c-2.27,2.08-6.73,4.23-9.01,3.33
			C307.45,641.13,308.15,636.21,310.6,631.29z"/>
		<path class="st48" d="M235.65,539.91c-5.46-3.8-5.83-9.08-2.62-13.51c2.33-3.22,6.85-4.43,11.19-0.68
			c0.48,0.09,0.62,0.17,0.71,0.18c0.31-0.08,0.54-0.17,0.45-0.08C247.37,535.07,244.76,539.12,235.65,539.91z"/>
		<path class="st34" d="M296.25,520.21c-2.04,0.88-3.87,1.26-6.16,1.69c-3.65-3.67-2.24-7.77-1.35-12.37
			c0.12-3.5,0.2-6.45,1.93-9.61c2.36-2.43,2.2-5.01,2.27-7.56c0.06-2.31-0.2-4.72,2.18-6.75c2.54,1.86,1.04,4.45,1.68,7.23
			C296.77,502.14,296.61,510.93,296.25,520.21z"/>
		<path class="st49" d="M232.84,603.15c-1.54,5.35-2.74,10.26-4.15,15.61c0.03-9.71,0.26-19.86,0.85-30.34
			c2.09-1.81,3.77-1.47,5.77,0.26C237.13,594.07,234.75,598.32,232.84,603.15z"/>
		<path class="st50" d="M293.69,604.69c-2.02-0.25-3.71-0.68-5.65-1.58c1.29-4.86,2.82-9.23,4.24-14.41c-0.2-1.3-0.23-1.8-0.13-2.67
			c0.37-1.38,0.85-2.25,2.11-3.02c0.67-1.25,1-2.31,1.57-3.71c2.34-0.77,3.43,0.7,4.86,2.47c0.6,7.64,0.62,14.74-4.62,21.02
			C295.05,603.51,294.53,604.01,293.69,604.69z"/>
		<path class="st24" d="M364.67,556.23c-0.01-2.81,0-5.02,0.01-7.79c2.07,0.32,4.14,1.19,6.73,2.15c0.3,7.43,0.08,14.78-0.28,22.65
			c-1.93-1.16-3.72-2.85-5.95-4.58C364.72,564.68,364.71,560.75,364.67,556.23z"/>
		<path class="st48" d="M301.94,645.26c5.28-1.11,8.79,1.07,8.01,5.64c-0.56,3.29-3.79,6.42-6.54,8.79
			c-0.51,0.44-6.47-3.23-6.35-4.74C297.3,651.69,299.84,648.59,301.94,645.26z"/>
		<path class="st42" d="M320.64,553.22c-1.15-3.69-2.52-7.24-2.22-10.64c0.12-1.36,4.32-3.73,5.97-3.25c2.47,0.72,4.93,3.22,6.2,5.6
			c0.78,1.47,0.03,5.13-1.26,6.03C327.09,552.5,323.89,552.67,320.64,553.22z"/>
		<path class="st35" d="M457.3,364.1c1.07-5.44,4.5-7.93,10.28-8.03c3.46-0.06,6.9-1.5,10.86-2.35c-2.26,3.73-5.04,7.5-8.22,11.44
			C465.82,364.94,461.82,364.55,457.3,364.1z"/>
		<path class="st42" d="M327.09,561.34c4.25-4.37,8.92-4.15,12.43-0.36c1.53,1.65,1.79,6.21,0.58,8.18
			c-1.18,1.91-5.33,3.46-7.55,2.86c-2.25-0.61-3.94-3.92-5.47-6.3C326.5,564.81,327.02,563.19,327.09,561.34z"/>
		<path class="st48" d="M335.74,589.46c-1.9-2.43-4.09-4.51-4.5-6.9c-0.21-1.23,2.65-4.14,4.3-4.28c2.64-0.22,5.79,0.7,7.99,2.2
			c1.15,0.78,1.64,5.05,0.84,5.66C342.07,587.9,338.97,588.58,335.74,589.46z"/>
		<path class="st19" d="M195.15,583.29c2.97-0.84,5.92-1.22,9.35-1.7c2.27,7.02,4.08,14.13,5.84,21.77
			C205.25,597.17,200.19,590.46,195.15,583.29z"/>
		<path class="st48" d="M253.68,628.54c-0.09-3.39-1.06-7.3,0.46-9.4c1.2-1.67,5.47-1.13,8.83-1.45c3.54,7.69,2.6,9.92-5.34,12.81
			c-1.02-0.29-1.56-0.63-2.44-0.91C254.47,629.44,254.15,629.15,253.68,628.54z"/>
		<path class="st2" d="M220.82,340.63c0.02-5.59-0.11-10.55,0.16-15.49c0.06-1.09,1.52-2.11,2.34-3.16c0.46,1.07,1.3,2.14,1.31,3.21
			c0.11,9.04,0.11,18.09,0,27.13c-0.01,1.06-0.89,2.11-1.37,3.16c-0.8-1.08-2.19-2.11-2.29-3.25
			C220.66,348.61,220.83,344.93,220.82,340.63z"/>
		<path class="st51" d="M230.44,438.82c-1.76-0.18-2.98-0.76-4.26-0.98c-0.57-0.1-1.27,0.53-2.18,1.1c0.12-3.67,0.52-7.6,0.87-12.07
			c0.78-1.85,0.39-3.32,0.54-5.15c0.25-0.98,0.6-1.43,1.47-1.93c1.87,0.19,3.31,0.5,5.18,1
			C235.88,427.17,233.87,432.9,230.44,438.82z"/>
		<path class="st48" d="M258,545.29c-2.57,0-4.58-0.01-7.19-0.09c0.76-4.88,2.12-9.7,3.7-14.96c1.74-1.93,3.54-2.11,6-1.27
			c1.06,0.79,1.48,1.42,1.9,2.68C262.78,537.02,263.28,541.94,258,545.29z"/>
		<path class="st34" d="M355.23,427.33c-2.72,0.23-5.19,0.12-8.13,0.08c-1.7-1.32-1.36-2.86-0.33-3.95
			c5.07-5.35,10.09-10.88,18.78-10.58c1.25,0.8,2.08,1.31,2.99,2.2C364.23,419.3,359.85,423.15,355.23,427.33z"/>
		<path class="st48" d="M216.84,490.81c-2.98,0.03-5.45-0.01-7.99-0.52c1.76-4.51,3.58-8.56,5.55-13.04
			c2.46-1.67,4.72-1.01,7.41,0.02C223.88,483.16,221.26,487.19,216.84,490.81z"/>
		<path class="st52" d="M190.71,533.92c1-3,1.75-5.81,2.78-9.01c1.78-1.75,3.5-1.97,5.87-1.22c3.79,5.39-0.19,9.53-1.69,14.5
			c-0.62,1.02-1.04,1.54-1.9,2.34c-2.41,1.25-3.53,3.47-6.15,3.94c-0.1-3.06,0.22-5.89,0.84-9.26
			C190.76,534.67,190.45,534.11,190.71,533.92z"/>
		<path class="st52" d="M222.53,478.04c-2.76-0.31-4.94-0.58-7.55-1.04c0.67-3.85,1.77-7.5,3.09-11.56
			c2.29,0.11,4.35,0.62,6.51,1.61C226.45,471.38,225.86,474.89,222.53,478.04z"/>
		<path class="st50" d="M235.6,589.53c-1.92-0.49-3.35-0.96-5.25-1.43c-0.33-0.65-0.2-1.3,0.18-2.38c0.25-0.43,0.07-1.03,0.32-1.22
			c1.35-3.93,2.44-7.67,3.91-11.71c2.17,0.99,3.97,2.28,6.16,3.49c2.77,2.6,0.01,4.67-0.64,7.46
			C239.05,586.18,238.28,588.4,235.6,589.53z"/>
		<path class="st5" d="M318.55,122.1c0.23-0.76,0.97-1.48,1.71-1.47c24.92,0.09,49.84,0.25,75.16,0.77
			c-0.18,1.04-0.89,1.51-2.34,1.93c-24.04,0.23-47.46,0.91-70.87-0.23C321.12,123.05,320.06,122.93,318.55,122.1z"/>
		<path class="st4" d="M317.77,121.86c24.94-0.1,49.61-0.08,74.89-0.04c0.67,0.44,0.72,0.86,0.31,1.72
			c-8.07,2.43-15.85,1.34-23.53,1.66c-13.1,0.55-26.21-0.48-39.32-0.18c-3.72,0.09-7.11-1.67-11.41-1.51
			c-0.84-0.25-1.07-0.32-1.63-0.52C316.9,122.47,317.15,122.19,317.77,121.86z"/>
		<path class="st52" d="M262,529.63c-2.36,0.14-4.25,0.16-6.7,0.17c-0.51-0.65-0.46-1.29-0.17-2.37c0.2-0.64,0.17-0.86,0.4-1.27
			c1.01-3.4,1.76-6.6,2.72-10.25c1.99,0,3.77,0.45,6.01,0.92c2.2,1.69,1.18,3.66,1.02,6.02C264.74,525.59,264.3,527.85,262,529.63z"
			/>
		<path class="st41" d="M312.56,510.96c1.49-0.19,3.06,0.07,5.09,0.51c4.43,0.79,4.87,4.46,6.67,7.52c0.26,3.26,0.33,6.1,0.2,9.42
			C320.43,523.05,316.54,517.23,312.56,510.96z"/>
		<path class="st49" d="M270.87,629.37c0.62,3.79,0.86,7.94,1.39,12.43c-0.98,4.66-2.26,8.99-3.98,13.37
			c-0.54-3.45-0.62-6.96-0.58-11.05c0.67-1.91,0.31-3.32,0.76-5.02C269.3,635.75,269.89,632.74,270.87,629.37z"/>
		<path class="st48" d="M339.85,603.57c-2.82-0.65-5.48-1.27-7.55-2.73c-0.48-0.33,0.52-4.21,1.81-5.2c1.17-0.9,5.06-0.6,5.3,0.05
			C340.24,598.03,340.03,600.74,339.85,603.57z"/>
		<path class="st48" d="M301.49,666.35c-0.88,2.84-1.54,5.65-3.28,7.36c-0.75,0.74-4.81-0.23-5.47-1.44
			c-0.93-1.73-0.5-6.22,0.06-6.35C295.5,665.32,298.43,665.79,301.49,666.35z"/>
		<path class="st42" d="M216.15,577.88c-3.61-8.06-1.34-11.66,7.05-11.32c0.56,0.92,0.76,1.46,0.85,2.47
			c-1.13,2.1-4.53,3.49-0.43,6.15C222.97,580.78,218.99,577.3,216.15,577.88z"/>
		<path class="st49" d="M300.32,581.26c-1.52-0.4-2.56-1.11-3.92-2.07c0-5.89,0.33-11.55,0.75-17.77c1.36,2.99,2.63,6.56,3.97,10.61
			C303.41,575.43,302.96,578.22,300.32,581.26z"/>
		<path class="st2" d="M294.27,582.53c0.11,1.36-0.1,2.44-0.56,3.85c-0.63,0.64-0.98,0.98-1.28,1.72c0.01,0.36,0.01,0.42,0.03,0.44
			c-1.83-0.16-3.68-0.33-6.09-0.52c-0.79-1.23-1.02-2.46-1.24-4.15C289.29,576.33,290.34,576.19,294.27,582.53z"/>
		<path class="st2" d="M221.14,311.21c-0.56-3.42-1.18-6.34-1.23-9.27c-0.02-1.16,1.2-2.34,1.86-3.51c0.94,0.95,2.59,1.84,2.69,2.87
			c0.35,3.58,0.15,7.21,0.16,10.82C223.52,311.98,222.42,311.84,221.14,311.21z"/>
		<path class="st46" d="M188.98,544.78c1.85-1.89,3.47-3.23,5.58-4.55c2.93,3.04,2.3,6.46,1.56,10.39c-3.3,2.59-2.72,6.95-6.08,9.08
			C189.27,554.83,189.01,550.07,188.98,544.78z"/>
		<path class="st42" d="M200.87,524.78c-2.27-0.01-4.13-0.14-6.54-0.27c-0.13-2.4,0.29-4.81,1.06-7.52
			c1.28-0.63,1.43-1.48,1.76-2.68c0.12-0.4,0.09-0.41,0.08-0.43c1.43,2.16,2.86,4.33,4.36,7.06
			C202.37,522.64,202.29,523.7,200.87,524.78z"/>
		<path class="st5" d="M280.21,578.74c-3.02,2.41-6.15,4.43-9.62,6.76c-1.9,0.26-2.99-0.48-3.44-2.43c0.16-0.5,0.18-1.07,0.33-1.31
			c0.43-0.57,0.7-0.91,1.06-1.57c2.47-1.88,4.82-3.45,7.63-5.05C277.78,576.19,278.94,577.27,280.21,578.74z"/>
		<path class="st3" d="M393.49,123.2c-0.28-0.43-0.23-0.9-0.23-1.14c0.57-0.25,1.13-0.26,2.12-0.28c9.27,1.46,18.12,2.93,27.31,4.73
			c0.13,0.59-0.07,0.84-0.72,1.34c-3.07,1.08-5.63,0.47-8.65-0.31c-0.77-0.21-1.08-0.3-1.84-0.54c-2.22-0.93-4.12-0.93-6.48-1.03
			c-1.14-0.09-1.78-0.19-2.91-0.44C399.07,124.5,396.13,125.36,393.49,123.2z"/>
		<path class="st5" d="M300.21,476.99c-0.09,1.44-0.08,1.96-0.12,2.86c-0.71,1.33-1.37,2.27-2.86,2.96c-1.63-1.4-2.05-2.71-2.6-4.54
			c-0.67-4.78-0.72-9.03,0.32-13.77c0.81-1.45,1.63-2.12,3.27-2.3c2.91,3.1,1.94,6.67,2.18,10.52
			C300.4,474.15,300.36,475.11,300.21,476.99z"/>
		<path class="st2" d="M224.69,375.21c-0.49,1.98-0.98,3.43-1.47,4.87c-0.78-1.41-1.59-2.8-2.3-4.24c-0.16-0.33-0.04-0.85,0.08-1.25
			c0.87-2.8,1.77-5.58,2.66-8.37C224.01,369.05,224.35,371.86,224.69,375.21z"/>
		<path class="st45" d="M189.47,560.02c1.5-3.03,2.95-5.63,4.9-8.25c3.05,2.9,2.79,6.06,0.95,9.85c-1.72,0.53-3.08,0.54-4.94,0.56
			C189.72,561.61,189.57,561.03,189.47,560.02z"/>
		<path class="st50" d="M216.04,577.97c1.99-1.12,4.28-1.83,6.22-2.82c-0.83-1.52-0.42-2.63,0.51-4.02
			c0.43-1.17,0.54-2.03,0.68-3.53c3.27,1.46,4.56,3.97,2.48,7.79C223.6,579.65,220.31,579.88,216.04,577.97z"/>
		<path class="st31" d="M231.97,186.52c-0.78,5.51-1.89,11.37-3.21,17.67c-0.38,0.6-0.56,0.76-0.99,0.69
			C228.88,198.72,230.25,192.8,231.97,186.52z"/>
		<path class="st48" d="M253.95,641.31c0.62-2.2,1.52-4.09,2.79-6.27c1.69,0.66,3.02,1.61,4.23,3.01c-0.27,0.63-0.43,0.81-0.9,1.19
			c-0.99,0.53-1.58,0.98-2.42,1.77C256.37,641.97,255.34,642.16,253.95,641.31z"/>
		<path class="st48" d="M217.41,590.1c-0.3-1.74-0.19-3.44-0.09-5.14c1.69,0.82,3.37,1.63,4.87,2.75
			C220.72,588.95,219.4,589.8,217.41,590.1z"/>
		<path class="st50" d="M259.62,638.49c0.38-0.03,0.8-0.02,1.02-0.01c-0.57,1.88-1.35,3.75-2.52,5.81c-1.68-0.71-2.98-1.61-4.37-2.9
			c0.98-0.62,2.05-0.84,3.33-1.43C257.87,639.09,258.48,638.66,259.62,638.49z"/>
		<path class="st28" d="M302.28,525.42c-0.46,0.46-0.91,0.46-1.71,0.47c-0.37-0.21-0.44-0.42-0.44-0.63
			c0.08-1.83,0.18-3.66,0.27-5.49C301.03,521.5,301.65,523.23,302.28,525.42z"/>
		<path class="st10" d="M227.33,205.03c0.17-0.38,0.7-0.37,0.96-0.38c0.26-0.01,0.29,0.02,0.3,0.03c2.53,3.82,2.84,7.63-0.56,11.53
			c-0.65-2.63-0.68-5.33-0.86-8.59C227.06,206.5,227.1,205.95,227.33,205.03z"/>
		<path class="st50" d="M217.2,590.46c1.2-1.08,2.59-1.75,4.39-2.44C220.47,588.97,218.93,589.92,217.2,590.46z"/>
		<path class="st4" d="M260.17,430c-0.09-2.99-0.01-5.96,0.32-9.29c0.29,2.5,0.34,5.35,0.29,8.75
			C260.69,430.01,260.35,430.02,260.17,430z"/>
		<path class="st53" d="M297.01,492.8c-0.42-1.64-0.74-3.84-1.1-6.54c-0.43-0.99-0.64-1.55-0.45-2.61c0.43-0.59,0.69-0.76,1.34-0.66
			c0.38,0.26,0.42,0.23,0.39,0.24C297.14,486.24,297.12,489.25,297.01,492.8z"/>
		<path class="st4" d="M226.29,420.56c-0.54,1.98-0.8,3.47-1.26,5.36c-0.12-2.4-0.04-5.21,0.34-8.43
			C226.96,417.78,226.54,418.99,226.29,420.56z"/>
		<path class="st43" d="M421.7,127.67c0.22-0.54,0.44-0.61,1-0.75c2.27,0.66,4.21,1.38,6.47,2.41c-0.64,0.24-1.6,0.19-3.04,0.1
			C423.83,130.57,422.73,129.45,421.7,127.67z"/>
		<path class="st19" d="M268.46,639.1c0.14,1.05,0.03,2.44-0.35,4.14C267.96,642.17,268.09,640.8,268.46,639.1z"/>
		<path class="st54" d="M226.29,420.88c-0.32-0.83-0.36-1.83-0.51-3.31c-0.02-0.7,0.06-0.91,0.3-1.43c0.5,0.69,0.86,1.69,1.22,3.11
			C227.16,420.08,226.91,420.43,226.29,420.88z"/>
		<path class="st20" d="M436.48,134.74c-0.44-0.01-0.5-0.55-0.53-0.82c0.11-0.51,0.26-0.76,0.73-0.72c1.02,0.54,1.73,0.8,2.67,1.35
			C438.69,134.82,437.81,134.79,436.48,134.74z"/>
		<path class="st43" d="M434.32,131.95c-0.8,0-1.88-0.3-3.17-0.98C431.98,130.94,433.01,131.29,434.32,131.95z"/>
		<path class="st41" d="M324.99,530.15c0.59,0.34,1.29,1.02,1.98,2.11C326.35,531.95,325.72,531.22,324.99,530.15z"/>
		<path class="st43" d="M500.79,208.21c-0.43-0.28-0.82-0.98-1.15-2.08C500.08,206.41,500.45,207.11,500.79,208.21z"/>
		<path class="st43" d="M499.25,204.37c-0.37-0.26-0.74-0.89-1.08-1.9C498.56,202.73,498.9,203.37,499.25,204.37z"/>
		<path class="st55" d="M502.47,304.28c-0.15-0.47-0.04-1.2,0.35-2.2C502.98,302.55,502.86,303.28,502.47,304.28z"/>
		<path class="st9" d="M436.77,133.24c0.22,0.25-0.32,0.31-0.6,0.36c-0.62-0.13-0.93-0.36-1.34-0.91
			C435.32,132.62,435.93,132.81,436.77,133.24z"/>
		<path class="st40" d="M196.94,514.14c0.08,0.56-0.16,1.36-0.8,2.35C196.03,515.92,196.32,515.15,196.94,514.14z"/>
		<path class="st34" d="M215.69,607.4c0.37,0.14,0.62,0.4,0.87,0.66c-0.31,0.06-0.62,0.12-1.07-0.06
			C215.34,607.75,215.57,607.51,215.69,607.4z"/>
		<path class="st16" d="M482.48,171.98c-0.36,0.15-0.66-0.14-0.94-0.85C481.79,171.1,482.11,171.38,482.48,171.98z"/>
		<path class="st28" d="M253.57,653.91c-0.32-0.1-0.35-0.55-0.35-0.78c0.4-0.11,0.71,0.12,1.14,0.68
			C254.35,654.01,254.12,654.01,253.57,653.91z"/>
		<path class="st28" d="M254.52,654.06c0.15,0.12,0.33,0.22,0.5,0.32c-0.15,0.03-0.29,0.06-0.44-0.14
			C254.57,654.01,254.54,654.05,254.52,654.06z"/>
		<path class="st56" d="M309.87,123.69c0.03,0.36-0.26,0.53-0.87,0.58C308.91,123.9,309.2,123.67,309.87,123.69z"/>
		<path class="st46" d="M255.6,526.08c0.25,0.16,0.21,0.42-0.08,0.79C255.11,526.73,255.12,526.45,255.6,526.08z"/>
		<path class="st5" d="M245.27,525.87c-0.22,0.13-0.24,0.08-0.25,0.06C245.17,525.85,245.33,525.79,245.27,525.87z"/>
		<path class="st46" d="M190.8,533.84c0.26,0.11,0.25,0.33,0.05,0.69C190.5,534.47,190.46,534.23,190.8,533.84z"/>
		<path class="st47" d="M219,462.1c0.17,0.19,0.1,0.61-0.19,1.26C218.64,463.17,218.7,462.75,219,462.1z"/>
		<path class="st51" d="M221.79,453.22c0.27,0.18,0.2,0.56-0.19,1.14C221.29,454.18,221.35,453.79,221.79,453.22z"/>
		<path class="st32" d="M345.46,557.39c0.26-0.01,0.55,0.32,0.88,0.99C346.09,558.39,345.79,558.06,345.46,557.39z"/>
		<path class="st23" d="M498,318.31c-0.54,0.03-0.62-0.3-0.16-0.8C498.02,317.4,498.09,318.01,498,318.31z"/>
		<path class="st34" d="M295.11,527.49c-0.16-0.19-0.1-0.62,0.18-1.3C295.45,526.38,295.39,526.81,295.11,527.49z"/>
		<path class="st49" d="M230.91,584.41c0.31,0.15,0.3,0.39,0.01,0.75C230.51,585.05,230.49,584.79,230.91,584.41z"/>
		<path class="st27" d="M154.22,395.98c2.2,11.36-2.88,19.45-11.48,25.47c-8.53,5.97-17.56,6.68-26.74-0.03
			c0.41-2.62,2.33-3.02,4.28-3.29c11.36-1.6,19.58-7.95,26.05-17.03C148.18,398.51,149.97,395.66,154.22,395.98z"/>
		<path class="st57" d="M154.69,395.75c-1.92,1.78-4.48,2.68-5.57,4.47c-7.44,12.28-18.35,18.79-32.92,20.61
			c-2.42-0.85-4.35-1.92-6.38-3.4c0.4-2.32,1.94-2.85,4.09-3.28c14.68-3.28,26.36-10.11,33.7-23.18c0.74-1.31,1.45-2.65,3-3.9
			C152.27,389.68,153.5,392.48,154.69,395.75z"/>
		<path class="st51" d="M143.96,379.23c0.87,0.19,1.26,0.34,1.7,0.99c1.43,3.12-0.24,5.22-1.71,7.3c-6,8.5-12.88,15.9-23.24,19.15
			c-2.01,0.63-3.9,1.73-6.01,3.32c-2.67,1.09-4.95,1.6-7.82,0.94c-1.22-1.69-1.98-3.17-2.69-5.07c-0.46-4.7,0.96-7.32,6.24-7.05
			c5.4,1.07,9.79-0.12,13.74-3.1c5.42-4.08,11.45-7.48,14.83-13.82C139.86,380.29,141.22,378.66,143.96,379.23z"/>
		<path class="st58" d="M150.95,386.52c-3.95,12.24-12.35,20.03-23.48,25.1c-3.82,1.74-7.96,2.79-12.46,4.15
			c-2.23-3.34,1.16-4.38,2.75-6.7c12.44-4.51,21.71-12.1,28.05-23.21c0.44-0.78,1.05-1.34,2.33-1.5
			C149.35,385.06,150.11,385.61,150.95,386.52z"/>
		<path class="st7" d="M144.17,379.16c-6.13,6.09-12.09,12.35-18.92,17.43c-3.42,2.55-8.43,2.96-13.04,3.99
			c-1.05-1.66-0.5-2.81,0.43-4.32c5.4-3.97,11.63-6.04,15.67-11.85c4.95-2.04,7.48-8.1,13.96-6.42
			C143.1,378.48,143.54,378.66,144.17,379.16z"/>
		<path class="st47" d="M148.41,384.18c-4.39,10.6-12.81,17.18-21.9,23c-2,1.28-4.69,1.47-7.57,2.18c-1.43,0.71-2.44,0.92-3.98,0.28
			c3.03-2.34,6.42-4.52,9.98-6.34c9.5-4.86,15.45-13.01,20.79-22.32c0.43-0.12,0.77,0.24,1.16,0.97c0.24,0.5,0.43,0.61,0.7,1.06
			C147.84,383.5,148.04,383.67,148.41,384.18z"/>
		<path class="st59" d="M142.39,377.92c-3.96,2.51-8.18,4.64-12.86,6.78c-6.62-6.06-7.72-6.16-14.87-1.14
			c-1.22,0.85-2.37,1.8-4.73,1.48C114.48,373.91,131.61,372.52,142.39,377.92z"/>
		<path class="st60" d="M113.33,395.82c-0.42,1.53-0.75,2.59-1.25,4.04c-3.63,0.15-6.96,0.11-7.5,5.24
			c-3.01-7.26-0.73-13.87,4.18-20.23c0.4-0.2,0.64-0.08,0.76-0.01C111.56,388.16,111.22,392.21,113.33,395.82z"/>
		<path class="st61" d="M113.99,409.32c1.5,0.01,2.47,0.01,3.93,0.04c-0.77,1.86-2.02,3.7-3.34,5.97c-1.41,0.71-2.76,1-4.48,1.5
			c-1.41-1.6-2.45-3.41-3.59-5.67C108.77,410.25,111.12,409.79,113.99,409.32z"/>
		<path class="st58" d="M147.62,383.11c-0.24,0.09-0.44-0.11-0.63-0.58C147.23,382.42,147.45,382.61,147.62,383.11z"/>
		<path class="st51" d="M168.57,447.94c1.29,0.44,2.2,0.88,3.46,1.47c0.35,0.16,0.51,0.73,0.54,1.02
			c-4.33,9.14-10.21,16-21.46,16.58c-1.23-1.57-2.05-3.35-3.01-5.57c-0.57-1.35-0.51-2.33-0.22-3.74c1.09-2.26,1.95-4.09,3.25-6.19
			c1.77,1.56,1.51,4.6,4.96,5.14c1.78,0.14,3.02-0.1,4.07-1.73c0.46-0.53,0.67-0.74,1.21-1.21c2.67-1.33,3.23-3.78,4.92-5.85
			C167.18,447.75,167.68,447.84,168.57,447.94z"/>
		<path class="st61" d="M150.88,467.47c0.93-0.98,1.94-2.12,3.16-2.42c7.17-1.77,12.9-5.08,15.22-12.68
			c0.22-0.71,1.57-1.08,2.87-1.62c0.47-0.02,0.68-0.02,0.7,0.08c0.98,1.36,0.84,3,1.66,4.79c0.36,1.62,0.28,2.83,0.27,4.47
			c-0.14,0.71-0.26,0.97-0.77,1.43c-2.74,0.01-4.67,0.81-6.53,2.87c-1.93,1.03-3.26,2.13-4.8,3.73c-0.67,0.42-0.96,0.55-1.73,0.82
			c-3.17,0.43-5.87,0.79-8.87-0.83C151.57,467.95,151.05,467.69,150.88,467.47z"/>
		<path class="st40" d="M157.28,458.17c-4.77,0.6-6.97-1.02-5.78-6.31c1.64-1.63,3.2-2.67,5.18-3.75c5.92-1.65,6.32,1.18,4.69,5.86
			c-0.43,0.47-0.38,0.65-0.38,0.56C160.49,456.19,159.18,457.18,157.28,458.17z"/>
		<path class="st27" d="M172.37,460.81c0.38-0.19,0.87-0.11,1.11-0.02c0.53-0.08,0.83-0.24,1.48-0.04
			c0.41,7.5-5.06,12.62-13.83,13.04c-1.24-2.9,1.42-3.6,2.72-5.59c0.42-0.58,0.62-0.78,1.17-1.23c1.49-0.9,2.98-0.95,3.95-2.6
			C169.93,462.84,170.71,461.68,172.37,460.81z"/>
		<path class="st7" d="M161.47,454.49c-1.48-2.13-2.42-4.2-3.88-6.35c-0.19-0.42,0.14-0.77,0.76-1.3c2.49-0.97,4.74-0.52,7.46-0.27
			c0.49,0.27,0.7,0.67,0.78,0.87C165.12,449.96,163.56,452.25,161.47,454.49z"/>
		<path class="st62" d="M151.76,468.32c3.06-0.49,6.32-0.61,10.17-0.69c1.93,4.37-2.25,3.04-4.25,4.63
			C155.51,471.24,153.73,469.97,151.76,468.32z"/>
		<path class="st32" d="M157.66,472.78c1.31-1.59,3-2.92,4.78-4.69c0.09-0.43,0.07-0.48,0.05-0.5c0.52-0.51,1.14-0.66,2.23-0.14
			c-0.91,1.98-2.21,3.62-3.77,5.7C159.8,473.41,158.92,473.23,157.66,472.78z"/>
		<path class="st4" d="M166,446.5c-1.88,0.31-4.07,0.28-6.8,0.2C161,446.49,163.35,446.32,166,446.5z"/>
		<path class="st63" d="M174.26,456.26c-0.68-1.71-1.05-3.07-1.42-4.88c0.83,0.95,1.66,2.34,2.44,4.15
			C175.01,456.17,174.79,456.38,174.26,456.26z"/>
		<path class="st32" d="M173.98,456.42c-0.04-0.5,0.6-0.48,0.93-0.47c0.41,1.38,0.5,2.76,0.5,4.65c-0.36,0.49-0.63,0.46-1.29,0.36
			C173.81,459.56,173.92,458.24,173.98,456.42z"/>
		<path class="st4" d="M147.82,457.51c0.3,0.71,0.31,1.65,0.24,3.05C147.82,459.92,147.67,458.83,147.82,457.51z"/>
		<path class="st47" d="M183.23,323.45c0.37,0.23,0.84,0.24,1.07,0.26c0.24,0.25,0.25,0.47,0.27,1.02c0.47,1.64,0.06,2.93-0.34,4.12
			c-2.53,7.5-17.87,18.23-26.19,17.89c-2.78-3.02-0.38-4.33,1.42-5.66c2.87-2.13,5.75-4.21,7.84-7.75c0.78-1.46,1.6-2.3,2.91-3.27
			c1.78-1.07,3.19-1.93,4.45-3.63c0.51-0.49,0.73-0.67,1.32-1.08C178.46,324.33,180.29,322.53,183.23,323.45z"/>
		<path class="st64" d="M156.78,345.5c12.71-2.02,21.64-8.68,27.61-20.04c0.66,0.49,1.12,1.4,1.59,2.7c0.43,1.47,0.5,2.59,0.46,4.15
			c-0.01,0.7-0.02,0.99-0.13,1.68c-0.73,1.36-1.58,2.12-2.71,3.2c-0.57,0.43-0.81,0.59-1.44,0.94c-3.99,1.78-6.12,4.96-8.91,8.09
			c-0.61,0.46-0.87,0.61-1.56,0.94c-4.86,1.32-8.51,5.11-14.05,4.07c-1.25-0.74-2.04-1.43-2.95-2.49
			C153.72,346.56,154.39,345.59,156.78,345.5z"/>
		<path class="st32" d="M171.3,346.22c0.34-0.29,0.95-0.31,1.25-0.34c3.16-2.82,5.96-5.67,9.13-8.75c0.32-0.28,0.93-0.31,1.23-0.34
			c1-0.7,1.7-1.37,2.6-2.36c0.24-0.28,0.29-0.3,0.31-0.32c0.25-0.22,0.47-0.42,1.08-0.36c0.1,3.11-0.16,5.97-0.72,9.18
			c-0.92,0.89-1,1.67-1.31,2.76c-0.12,0.36-0.06,0.33-0.06,0.37c-6.89,1.82-11.41,8.33-19.14,9.44c-1.52-0.09-2.58-0.27-4.05-0.46
			c-0.69-0.32-1-0.6-1.5-1.13C162.6,349.72,167.61,349.4,171.3,346.22z"/>
		<path class="st27" d="M165.71,355.78c5.66-3.41,11.83-6.63,18.54-9.77C180.49,352.94,174.63,356.84,165.71,355.78z"/>
		<path class="st62" d="M187.3,333.53c-0.29,0.5-0.52,0.53-1.12,0.56c-0.34-1.47-0.33-2.94-0.25-4.96
			C186.44,330.06,186.9,331.56,187.3,333.53z"/>
		<path class="st27" d="M185.08,345.85c-0.2-0.57-0.04-1.35,0.45-2.35C185.72,344.06,185.58,344.86,185.08,345.85z"/>
		<path class="st59" d="M171.92,329.97c-1.06,1-1.81,1.66-2.76,2.65c-3.22,3.16-5.82,6.91-11.35,4.97c-3.35-5.13,1.07-6.52,3.7-8.62
			c5.29-4.22,5.14-6.2-1.29-9.84c-0.15-0.6,0.02-0.88,0.58-1.46c0.38-0.31,0.39-0.32,0.39-0.32c0.84-0.75,1.85-0.62,3.32-0.42
			c2.73,0.21,4.98,0.26,7.8,0.23c2.05,0.31,3.54,0.7,5.38,1.39c0.74,0.47,1.05,0.73,1.55,1.22c0.52,0.22,0.77,0.31,1.26,0.71
			c-0.68,2.53-3.12,3.31-4.71,5.56c-0.32,0.36-0.34,0.37-0.34,0.37C174.35,327.49,173.28,328.56,171.92,329.97z"/>
		<path class="st40" d="M159.6,318.88c2.77,1,5.25,2.07,7.72,3.14c-1.33,2.58-2.37,5.39-4.08,7.69c-1.69,2.27-4.06,4.02-6.18,6.47
			c-0.83,1.36-1.83,1.54-3.42,1.1c-2.54-4.75-2.19-9.04,1.01-13.51C156.4,321.87,157.86,320.41,159.6,318.88z"/>
		<path class="st51" d="M153.54,336.44c1.13,0.24,1.91,0.24,3.08,0.22c4.06-1.23,7.73-2.44,11.87-3.68
			c-3.37,3.94-7.21,7.92-11.13,12.32c-0.92,1.03-1.77,1.64-2.69,2.65c-1.76-2.29-3.44-5-5.05-8.16c0.89-1.24,1.21-2.37,2.36-3.37
			C152.63,336.21,152.91,336.21,153.54,336.44z"/>
		<path class="st65" d="M171.14,345.9c-3.13,2.47-6.75,4.91-10.8,7.55c-1.27-0.37-2.12-0.92-3.07-1.88
			C161.67,349.41,166.16,347.65,171.14,345.9z"/>
		<path class="st20" d="M153.77,336.22c-0.16,0.49-0.43,0.52-1.1,0.56c-0.96,0.5-1.59,0.7-2.76,0.33c1.09-4.61,2.63-8.95,4.61-13.54
			C154.52,327.48,154.09,331.62,153.77,336.22z"/>
		<path class="st59" d="M149.38,337.27c0.69-0.44,1.32-0.46,2.41-0.48c-0.12,0.81-0.72,1.61-1.7,2.47
			C149.57,338.79,149.44,338.24,149.38,337.27z"/>
		<path class="st51" d="M192.02,379.4c0.96,0.86,1.55,1.6,2.43,2.53c0.29,0.71,0.28,1.22,0.24,2.12c-2.03,5.94-6.56,7.92-12.35,8.66
			c-1.72-1.24-2.97-2.36-4.43-3.85c-0.54-1.28-0.51-2.23-0.35-3.64c0.12-0.46,0.47-0.99,0.53-1.31c0.05-0.32,0.65-0.56,0.94-0.7
			c2.37,0.11,4.7,0.74,3.96-3.22c-0.15-0.68-0.19-0.96,0.16-1.44c0.94-0.3,1.51-0.41,2.46-0.71c1.31-0.25,2.24-0.26,3.59,0
			C190.3,378.45,190.97,378.86,192.02,379.4z"/>
		<path class="st19" d="M182.12,393.01c3.73-3.02,7.71-5.64,12.11-8.41C195.28,393.82,190.62,397.22,182.12,393.01z"/>
		<path class="st4" d="M177.42,385.02c0.3,0.68,0.35,1.62,0.33,3.01C177.52,387.42,177.34,386.34,177.42,385.02z"/>
		<path class="st3" d="M164.73,316.82c-0.69,0.39-1.63,0.49-3.06,0.57C162.29,317.09,163.38,316.81,164.73,316.82z"/>
		<path class="st51" d="M175.94,326.42c0.87-1.81,2.23-3.62,4.19-5.52c1.48,0.64,2.37,1.36,3.36,2.43
			C181.21,324.59,178.82,325.5,175.94,326.42z"/>
		<path class="st51" d="M179.38,319.61c-0.33,0.32-0.71,0.16-1.19-0.46C178.44,319.02,178.84,319.16,179.38,319.61z"/>
		<path class="st4" d="M189.41,377.75c-0.7,0.23-1.61,0.17-2.97,0.01C187.07,377.59,188.13,377.53,189.41,377.75z"/>
		<path class="st2" d="M183.13,378.31c0.4,0.05,0.22,0.57,0.15,0.84c-0.25,0.44-0.44,0.6-0.96,0.61c-0.35-0.39-0.36-0.62-0.39-1.19
			C182.18,378.24,182.45,378.25,183.13,378.31z"/>
		<path class="st40" d="M181.81,379.94c0.17-0.33,0.79-0.38,1.1-0.45c1.11,1.44,1.91,2.95,2.71,4.46c-2,0-4,0-6.15-0.44
			C180.1,382.15,180.87,381.21,181.81,379.94z"/>
		<path class="st60" d="M227.83,344.63c-0.46-1.93-0.48-3.74-0.46-6.09c1.26-8.34,0.19-16.21,0.93-24.55
			c0.28-1.1,0.28-1.67,0.28-2.68c9.3,1.6,17.06-3.14,23.06-8.43c12.57-11.09,23.67-23.84,35.69-35.58
			c3.47-3.39,8.24-5.39,12.07-8.47c8.34-6.72,16.17-14.09,24.74-20.5c10.43-7.8,21.26-15.1,32.18-22.22
			c9.87-6.44,19.89-12.71,30.22-18.38c8.49-4.66,17.53-8.34,26.81-12.46c3.26,3.33,3,7.68,4.3,12.02c-1.29,5.02-4.92,7.65-8.93,7.92
			c-13.14,0.9-22.2,9.23-30.83,17.26c-8.31,7.72-17.61,11.13-28.31,12.34c-2.78,0.31-5.64,0.34-7.94,3.14
			c-1.53,1.86-3.11,2.87-5.26,3.85c-1.22,0.49-2.06,0.74-3.24,1.24c-1.85,0.83-3.22,1.69-4.96,2.69c-1.29,0.68-2.15,1.26-3.16,2.34
			c-1.73,1.62-3.65,2.18-5.51,3.6c-0.52,0.44-0.73,0.62-1.53,1.35c-0.79,0.74-0.98,0.92-1.47,1.38c-1.27,1.14-2.29,1.95-3.73,2.82
			c-0.96,0.52-1.58,0.88-2.27,1.72c-0.47,0.74-0.76,1.15-1.39,1.79c-0.98,0.6-1.68,0.92-2.09,2.04c-0.16,0.9-0.35,1.38-0.85,2.15
			c-1.15,1.25-1.99,2.25-2.51,3.92c-1.67,3.72-3.16,7.07-4.85,10.8c-0.62,1.15-1.05,1.91-1.68,3.07c-0.43,0.61-0.64,0.83-1.28,1.19
			c-2.99-1.14-5.09-0.87-7.45,1.08c-6.31,5.24-12.66,10.45-17.22,17.33c-3.47,5.23-8.77,8.27-13.51,11.82
			c-6.44,4.82-11.67,10.75-17.42,16.21c-2.09,1.98-3.37,4.44-4.43,7.04C234.38,340.94,232.13,343.67,227.83,344.63z"/>
		<path class="st55" d="M416.86,198.44c-1.07-4.33-1.99-8.23-2.96-12.65c3.83-14.69,12.21-22.45,29.18-19.52
			c5.04,4.83,9.5,9.54,14.12,14.71c0.2,0.7,0.23,0.95,0.55,1.45c0.3,0.47,0.33,0.69,0.46,1.22c-0.18,18.67-11.51,28.33-29.12,24.76
			C422.85,207.48,418.64,204.75,416.86,198.44z"/>
		<path class="st66" d="M402.23,124.18c0.97-0.1,1.5-0.06,2.39,0.12c1.32,1.07,2.54,0.64,4.06,0.94c1.26,0.46,2.03,0.92,3.11,1.72
			c2.15,4.75-0.11,7.56-3.21,10.4c-7.22,6.6-16.1,10.84-23.64,16.97c-26.31,21.39-56.55,37.29-82.68,58.83
			c-13.62,11.23-28.38,20.94-41.52,32.89c-8.02,7.29-16.79,15.02-28.58,16.7c-1.65,0.24-1.8,1.61-1.9,2.94
			c-0.14,1.92,0.09,3.91-1.38,5.99c-0.3,0.35-0.9,0.36-1.2,0.35c-0.33-6.53-0.37-13.05-0.34-20.19c1.21-4.59,0.61-8.68,0.52-12.69
			c-0.1-4.04,0.71-6.34,5.36-4.95c2.17,0.65,4.23-0.27,6.82-0.55c2.08,0.27,3.03,1.52,4.21,2.43c6.62,5.06,11.58,3.97,15.8-3.81
			c8.03-9,16.61-16.82,25.02-24.82c1.73-1.64,3.67-3.1,5.97-3.8c6.25-1.92,11.12-5.88,15-10.84c6.08-7.78,14.54-12.16,22.95-16.4
			c10.29-5.17,19.34-11.86,28.46-18.82c11.45-8.75,22.52-18.1,34.77-25.79c2.96-1.85,5.69-3.88,8.31-6.83
			C401.21,124.56,401.49,124.44,402.23,124.18z"/>
		<path class="st59" d="M229.1,272.04c-0.51-1.95-0.61-3.89-0.49-5.83c0.2-3.29-1.7-9.05,5.39-4.83c0.51,0.3,1.74-0.13,2.37-0.59
			c9.25-6.82,18.44-13.73,27.67-20.58c8.24-6.12,16.62-12.07,24.76-18.34c10.01-7.71,19.73-15.8,29.78-23.46
			c4.24-3.23,9.14-5.59,13.51-8.67c20.85-14.65,41.64-29.4,62.43-44.15c4.71-3.34,9.61-6.49,13.88-10.34
			c1.74-1.58,2.02-4.78,2.97-7.76c0.15-0.77,0.31-1.02,0.85-1.48c3.08,0.2,5.77,0.6,8.97,1.08c1.6,0.69,2.69,1.31,4.12,2.1
			c-2.47,4.1-4.6,8.89-8.24,11.78c-7.02,5.59-15.08,9.84-22.36,15.13c-7.61,5.53-14.52,12.04-22.25,17.39
			c-19.7,13.63-39.93,26.5-59.49,40.33c-16.61,11.74-32.68,24.24-48.77,36.69c-7.39,5.73-14.48,11.9-21.24,18.36
			C238.87,272.78,234.8,274.09,229.1,272.04z"/>
		<path class="st6" d="M228.3,313.47c0.13,7.92-0.03,15.83-0.53,24.14c-0.38-7.39-0.4-15.16-0.37-23.55
			C227.47,313.45,228.03,313.46,228.3,313.47z"/>
		<path class="st3" d="M305.34,264.57c0.79-0.29,1.04-0.55,1.19-1.22c0.09-1.25,0.66-1.89,1.74-2.7c0.48-0.73,0.65-1.15,0.82-1.91
			c0.24-1.39,1.11-1.56,2.36-1.95c1.37-0.99,2.34-1.8,3.58-2.89c0.53-0.4,0.8-0.53,1.3-1.03c0.23-0.38,0.32-0.34,0.31-0.38
			c0.23-0.2,0.48-0.35,0.92-0.89c2.21-1.64,4.23-2.89,6.58-4.47c1.01-0.76,1.59-1.31,2.54-2.03c1.77-1.07,3.26-1.86,5.12-2.84
			c1.04-0.58,1.8-0.62,2.77-1.11c1.76-0.97,3.27-1.67,5.13-2.6c9.39-4.99,19.06-3.77,28.57-2.82c5.15,0.51,10.87,0.1,15.33,4.97
			c0.38,0.45,0.48,0.36,0.41,0.36c0.34,0.15,0.69,0.38,1.2,0.94c2.48,1.57,4.73,2.92,7.4,4.41c2.74,1.78,5.06,3.4,7.8,5.23
			c3.14,3.09,5.87,5.98,8.97,9.14c4.89,2.09,5.27,7.1,8.24,10.64c0.3,0.64,0.41,0.89,0.68,1.53c0.28,0.63,0.39,0.87,0.68,1.49
			c0.76,1.57,1.46,2.73,2.22,4.29c0.5,1.39,0.65,2.47,1.11,3.88c0.22,0.66,0.31,0.92,0.5,1.6c0.23,0.98,0.33,1.55,0.5,2.56
			c0.13,0.75,0.18,1.05,0.32,1.81c0.65,3.33,1.17,6.2,1.22,9.65c-0.04,3.98,0.01,7.46-0.1,11.47c-0.07,0.88-0.12,1.23-0.27,2.1
			c-1.35,3.08-0.42,6.17-2.42,9.04c-2.44,4.85-4.56,9.29-6.75,14.18c-4.25,5.84-8.42,11.22-12.79,17c-0.91,2.3-2.12,3.77-4.25,4.98
			c-1.58,0.74-2.85,1.2-4.18,2.4c-0.74,0.64-1.19,0.99-2.01,1.59c-0.88,0.59-1.4,0.91-2.34,1.47c-0.7,0.41-0.99,0.57-1.72,0.96
			c-12.5,6.48-25.49,6.68-39.11,6.11c-5.11-1.1-9.69-2.19-14.73-3.45c-7.92-3.43-14.56-7.98-21.22-13.35
			c-1.19-1.13-1.98-2.02-3.09-3.19c-1.71-2.03-2.82-3.97-4.56-5.95c-0.41-0.53-0.56-0.74-0.92-1.3c-0.44-0.79-0.67-1.25-1.07-2.04
			c-0.31-0.54-0.44-0.75-0.79-1.27c-0.54-0.7-0.87-1.08-1.5-1.74c-1.2-1.33-1.87-2.54-2.73-4.15c-1.51-4.71-3.21-8.9-4.54-13.71
			c-0.22-0.75-0.29-1.06-0.46-1.83c-0.38-2.37-0.2-4.34-1.09-6.65c-0.22-0.82-0.29-1.15-0.43-2c-0.25-4.4-0.13-8.29-0.18-12.72
			c0.5-4.52,0.83-8.55,3.99-12.16c0.44-0.33,0.72-0.61,0.65-0.8c0.1-1.05,0.44-1.87,0.82-3.09c1.9-3.9,3.52-7.46,5.31-11.44
			C303.27,267.04,304.04,265.83,305.34,264.57z"/>
		<path class="st67" d="M247.44,196.13c4.25-15.76,13.56-27.58,25.36-37.44c4.85-4.05,10.86-6.72,16.57-10.39
			c7.09-7.39,24.36-6.54,31.43,1.59c3.03,10.64,0.11,16.87-9.74,19.81c-16.83,5.04-29.91,14.5-38.25,30.75
			c-1.41,3.72-3.06,6.69-6.35,9.15c-5.45,3.55-10.42,3.66-15.2-0.12C247.03,206.12,245.13,201.95,247.44,196.13z"/>
		<path class="st56" d="M271.25,201.09c6.9-16.31,19.06-26.46,35.54-31.82c5.48-1.78,12.31-2.18,13.19-10.05
			c0.24-2.1,0.15-4.23,0.13-6.87c6.11-7.33,12.55-13.92,18.66-20.8c1.2-1.36,3.61-2.65,2.68-4.66c-0.74-1.58-3.14-0.62-4.8-0.77
			c-4.24-0.39-8.62,0.87-13.07-1.4c-1.83-0.46-3.32-0.62-5.14-1.08c24.31-0.4,48.95-0.5,74.19-0.73c3.44,0.15,6.28,0.42,9.59,0.93
			c0.47,0.24,0.16,0.44,0.02,0.55c-5.18,3.02-10.71,1.6-16,1.63c-4.85,0.02-8.4,1.74-12.14,4.82
			c-12.77,10.5-23.27,24.01-37.76,32.05c-19.72,10.93-35.31,27.6-55.34,37.9C277.85,202.38,274.92,204.33,271.25,201.09z"/>
		<path class="st56" d="M247.29,195.67c1.52,3.73,1.81,7.96,3.83,11.07c3.59,5.53,8.89,4.65,14.49,1.66
			c3.12,2.8,1.58,5.38-0.31,7.79c-2.24,2.86-5.1,5.05-8.63,7.18c-6.97,1.08-12.63,3.1-14.72,10.78c-3.84,0.6-7.37,0.69-10.8,1.31
			c-0.99,0.18-2.33,1.82-2.45,2.9c-0.44,4-0.43,8.05-0.94,12.48c-0.4-10.85-0.46-22.09-0.44-33.95c0.47-4.1,0.87-7.59,1.26-11.64
			c4.01-2.2,8.08-3.68,11.99-5.52C242.82,198.68,244.77,197.04,247.29,195.67z"/>
		<path class="st68" d="M323.16,124.84c6.53-0.44,12.99-0.53,19.43-0.31c0.72,0.02,2.12,2.48,1.97,2.63
			c-7.79,8.17-15.71,16.22-24.08,24.47c-3.13-5.39-8.07-6.98-13.62-6.56c-5.47,0.41-10.89,1.58-16.81,2.64
			c0.72-8.75,8.62-9.86,14.89-12.97C311.05,131.71,317.04,128.44,323.16,124.84z"/>
		<path class="st69" d="M474.05,224.23c2.04,1.61,3.52,3.18,5.29,5c0.91,3.29,1.52,6.32,2.16,9.87c0.73,7.49-1.97,11.38-9.31,14.13
			c-2.43,0.91-4.93,1.2-8.03,1.07c-4.23-0.51-6.88-3.06-10.39-5.08c-3.14-4.01-4.85-7.91-2.86-13.03
			C453.46,227.13,458.21,222.37,474.05,224.23z"/>
		<path class="st38" d="M450.74,235.74c1.48,3.95,2.49,7.91,3.66,12.33c-0.75,2.39-2.58,3.24-4.39,3.76
			c-12.87,3.68-22.98,11.01-30.15,22.34c-0.22,0.34-0.68,0.49-1.55,0.57c-0.47-0.09-0.46-0.12-0.47-0.12
			c-0.17-0.18-0.33-0.36-0.63-0.87c-2.47-4.2-4.82-8.06-7.32-12.32c3.19-3.21,6.27-6.41,9.92-8.73
			c8.25-5.26,16.75-10.13,25.21-15.04C446.6,236.76,448.51,236.38,450.74,235.74z"/>
		<path class="st70" d="M408.37,364.95c1.14,3.05,1.88,5.78,2.81,8.95c-1.99,3.69-4.06,7.03-6.39,10.17
			c-2.87,3.87-5.96,7.57-8.94,11.84c-2.24,0.96-4.49,1.41-7.25,1.86c-2.97-2.35-2.29-5.42-2.38-8.83
			c2.78-9.45,8.56-16.3,15.25-22.45C403.17,364.93,405.35,363.66,408.37,364.95z"/>
		<path class="st71" d="M387.68,386.99c0.34,3.41,0.35,6.51,0.38,10.19c-3.96,1.41-7.95,2.24-12.47,3.11
			c-10.22,2.81-18.56,8.5-28.21,12.43c-4.98-0.64-5.37-5.6-8.82-8.06c-0.51-0.99-0.61-1.61-0.41-2.69
			c9.72-5.94,15.68-15.03,22.6-23.15c1.62-1.9,4.2-4.22,2.94-6.68c-1.33-2.61-4.69-0.93-7.63-1.21c-3.2-0.06-6.06,0.43-8.18-2.47
			c13.97,0.36,27.66-0.43,40.9-7.11c1.54,2.94-1.03,4.04-2.65,5.48c-2.35,2.07-3.33,4.66-4.29,7.58
			C379.86,380.44,381.05,384.59,387.68,386.99z"/>
		<path class="st53" d="M346.31,412.25c9.5-4.18,18.6-8.09,28.22-11.96c0.47,6.24-4.99,8.32-8.54,12.37
			c-8.16,2.52-14.79,6.71-19.35,14.35c-1.14,2.01-2.26,3.57-3.71,5.35c-3.48,1.82-5.95,4.79-10.3,4.66
			c-2.74-7.25,2.5-11.76,5.56-16.83C340.02,417.16,342.82,414.58,346.31,412.25z"/>
		<path class="st72" d="M388.07,386.84c-3.32-0.86-9.52-2.75-9.39-3.39c1.16-5.88,3.18-11.65,5.5-17.23
			c0.72-1.73,3.12-2.76,4.91-4.54c0.16-0.42,0.19-0.37,0.16-0.37c0.63-0.46,1.45-0.53,2.36-1.22c0.33-0.73,0.58-1,1.23-1.25
			c1.39-0.75,2.49-1.43,3.92-2.32c1.8-1.44,3.3-2.64,5.17-3.98c9.1,1.25,13.66-5.47,19.4-9.89c2.45-1.89,4.84-3.85,7.72-5.82
			c-3.4,4.9-7.22,9.88-11.13,14.78c-2.07,2.59-4.3,5.04-6.51,8.02c-0.8,1.93-1.56,3.41-2.48,5.26c-5.15,4.35-10.41,8.03-15,12.42
			C391.41,379.72,390.02,383.32,388.07,386.84z"/>
		<path class="st20" d="M384.03,240.66c-14.05-4.62-28.4-4.1-43.41-2.29c1.31-1.76,3.2-4.95,5.05-4.93
			c14.59,0.18,25.39-6.94,35.84-16.12c7.18-6.3,14.25-13.53,25.4-13.36c3.05,0.05,6.16-3.36,9.51-5.57
			c4.01,2.87,7.75,6.12,11.81,9.69c-6.06,3.43-12.56,6.35-18.81,9.72C399.29,223.27,387.37,226.88,384.03,240.66z"/>
		<path class="st20" d="M385.26,241.94c-0.24,0.12-0.66-0.05-1.2-0.54C384.33,241.26,384.71,241.46,385.26,241.94z"/>
		<path class="st73" d="M299.82,582.13c0.46-3.23,0.9-5.9,1.35-9.09c4.35-0.53,8.69-0.54,13.55-0.54
			c3.44,11.35,2.39,22.37-2.51,33.44c-5.5-0.44-10.69-1.23-16.25-2.47C296.98,596.23,298.39,589.45,299.82,582.13z"/>
		<path class="st39" d="M423.19,311.12c-0.19-4.15-0.13-8.05,0.01-12.53c3.43,0.22,2.37,3.18,3.15,5.69
			c0.83,1.07,1.84,1.35,2.47,0.77c6.45-5.91,15.5-7.21,22.21-12.75c3.62-2.98,8.18-4.66,13-6.57c3.55-0.09,5.8,1.56,8.04,4.09
			c-2.63,3.11-5.16,6.26-8.37,8.38c-7.83,5.19-15.87,10.09-24.04,14.73c-5.46,3.1-11.29,5.56-17.44,8.31
			c-0.29-2.84-0.1-5.69,0.36-8.99c0.66-0.23,0.95,0.04,1.15,0.34C423.69,312.16,423.59,311.75,423.19,311.12z"/>
		<path class="st69" d="M472.77,290.21c-2.81-1.17-5.13-2.38-7.83-3.79c-3.34-2.06-3.38-4.99-3.18-8.52
			c2.72-5.38,5.29-10.32,12.64-8.97c2.81,1.95,5.16,3.61,7.89,5.47c0.8,2.89,1.23,5.56,1.65,8.75
			C480.38,285.84,476.83,288.01,472.77,290.21z"/>
		<path class="st65" d="M324.7,519c-2.11-2.02-4.02-4.44-6.26-7.11c-2.54-6.39-4.74-12.52-6.96-19.16
			c3.47-6.11,9.42-9.41,13.28-14.71c1.12-1.54,3.36-1.62,5.8-1.29c3.75,1.67,4.49,4.81,5.7,7.84c1.66,4.15,2.72,8.62,6.02,12.53
			c0.33,0.35,0.4,0.31,0.36,0.32c0.7,0.85,0.95,1.82,0.44,3.36c-5.45-0.26-8.55,1.96-10.8,6.68C330.37,511.43,327.4,514.9,324.7,519
			z"/>
		<path class="st30" d="M343.09,501.45c-0.39-1.19-0.47-2.14-0.53-3.57c1.33,1.81,2.64,4.1,3.95,6.87
			C345.48,504.06,344.44,502.88,343.09,501.45z"/>
		<path class="st38" d="M457.97,182.44c-0.29,0.09-0.53-0.16-0.64-0.75C457.62,181.63,457.81,181.88,457.97,182.44z"/>
		<path class="st30" d="M342.56,496.95c-2.05-2.14-4.52-4.56-6.12-7.46c-1.91-3.46-3.08-7.34-4.91-11.33
			c-4.08-4.97-4.66-10.47-4.43-16.72c1.28-4.53,2.59-8.29,8.53-5.9c0.5,2.17,0.53,3.98,0.57,6.34
			C334.87,474.41,337.74,485.61,342.56,496.95z"/>
		<path class="st37" d="M239.06,584.43c0.55-2.67,1.48-4.97,2.33-7.75c4.71-8.97,9.5-17.48,14.62-26.28
			c4.93-1.14,9.3-2.55,13.38-4.98c3.61-2.15,7.56-2.63,11.94-0.51c-4.95,9.73-10.27,19.09-15.97,28.68
			c-6.16,4.48-11.36,9.67-19.03,10.67C244.03,584.56,241.84,585.83,239.06,584.43z"/>
		<path class="st57" d="M261.45,530.18c0.77-2.3,1.46-4.18,2.29-6.48c4.28-4.2,8.28-8.08,11.86-12.45c4.36-5.32,7.99-5.82,14.5-2.6
			c0.03,4.3-0.27,8.24-0.53,12.74c-0.84,3.71-1.71,6.86-2.7,10.48c-1.29,1.56-2.6,1.21-3.68,0.52c-2.92-1.85-5.57-1.62-8.36,0.37
			c-4.11,2.93-8.41,2.87-13.03-0.08C261.44,531.75,261.41,531.18,261.45,530.18z"/>
		<path class="st73" d="M238.38,584.34c7.14-2.82,15.69-1.38,20.37-9.17c0.66-1.1,3.38-0.95,5.69-1.36
			c-1.22,2.71-2.98,5.4-4.86,8.52c-4.54,7.61-8.95,14.79-13.69,22.28c-4.3-0.14-8.28-0.59-12.82-1.03c0.3-4.36,1.16-8.72,2.03-13.57
			C236.11,587.88,237.09,586.24,238.38,584.34z"/>
		<path class="st41" d="M261.3,532.84c5.73,0.53,10.92,1.29,15.77-3.41c1.04-1.01,5.76,1.76,9.24,2.86c-1,4.19-2.44,8.31-4.25,12.72
			c-5.55,1.59-10.72,2.99-15.94,4.16c-2.89,0.65-5.87,0.92-9.3,1.15c-0.2-1.49,0.09-2.76,0.5-4.52
			C258.67,541.32,259.89,537.34,261.3,532.84z"/>
		<path class="st1" d="M267.03,582.9c1.12,0.48,1.95,1.31,3.01,2.52c0.55,2.49,0.88,4.59,1.3,7.15c-3.64,1.37-7.39,2.29-11.63,3.12
			c1-2.26,2.51-4.44,4.22-7.01C265.01,586.61,265.88,584.93,267.03,582.9z"/>
		<path class="st1" d="M268.38,580.07c0.11,0.21-0.04,0.63-0.47,1.24C267.79,581.1,267.95,580.69,268.38,580.07z"/>
		<path class="st54" d="M304.78,340.45c0.24,0.22,0.63,0.73,0.72,1.04c-14.43,5.84-26.91,14.11-36.39,26.67
			c-5.6,7.42-14.04,11.21-22.05,16.23c-4.85,5.51-9.44,10.64-13.87,15.9c-1.9,2.25-3.48,4.77-5.54,7.45
			c-0.33-2.4-0.32-5.07-0.27-8.32c1.18-3.45,0.29-6.45,0.61-9.86c6.09-6.66,11.01-13.73,16.21-20.59c3.37-4.44,7.63-7.6,13.41-8.25
			c5.78-0.65,9.93-3.8,13.07-8.57c2.73-4.15,5.59-8.21,8.79-12.02c2.6-3.08,5.54-5.54,10.46-4.4c3.55,3.2,7.29,2.78,11.53,2.08
			c0.74-0.06,1.03-0.11,1.68,0.12c0.35,0.27,0.67,0.66,0.74,0.9C304.08,339.49,304.28,339.87,304.78,340.45z"/>
		<path class="st38" d="M247.23,384.71c0.89-1.77,1.93-4.49,3.72-5.14c10.46-3.83,16.27-12.74,23.62-20.14
			c8.31-8.37,17.57-15.92,30.53-17.59c2.08,1.86,3.68,3.77,5.45,6.06c-4.97,3.21-9.12,7.05-12.7,11.76
			c-3.96,5.22-9.01,9.23-15.62,10.94c-3.9,1.01-7.17,3.43-9.23,6.76c-3.34,5.4-8.03,9.55-12.31,14.68
			c-0.63,1.52-0.86,2.73-1.91,4.08c-0.27,0.37-0.32,0.37-0.3,0.36c-1.73-1.71-3.58-3.32-5.22-5.12
			C251.32,389.22,249.56,386.93,247.23,384.71z"/>
		<path class="st74" d="M229.9,439.61c0.87-6.18,1.72-11.84,2.57-18.07c6.18-5.23,12.33-9.94,18.56-14.54
			c2.01-1.49,4.22-2.71,6.79-4.11c0.05,5.18-0.34,10.42-0.82,16.22c-1.79,2.58-2.78,4.96-3.68,7.4c-1.24,3.36-3.26,6.04-6.53,7.71
			c-3.54,1.81-5.95,4.94-8.83,7.53c-2.04,1.84-3.88,4.26-7.62,2.86C229.94,442.92,229.91,441.52,229.9,439.61z"/>
		<path class="st61" d="M266.57,463.99c-0.82-6.36-1.26-12.44-1.69-19.11c3.95-4.6,8.08-8.43,11.79-12.64
			c3.8-4.3,7.19-8.97,11.15-13.67c1.84-1.5,3.55-1.84,5.96-1.35c1.19,0.45,1.78,0.86,2.61,1.81c1,1.71,1.19,3.1,1.28,5.03
			c0.01,1.53-0.1,2.54-0.35,4.03c-0.57,2.04-0.93,3.61-0.87,5.74c0,3.16-0.68,5.68-1.87,8.58c-2.47,4.3-5.03,7.21-10.31,6.93
			c-3.3-0.18-4.59,3.47-6.46,5.78C274.79,458.85,272.74,463.79,266.57,463.99z"/>
		<path class="st75" d="M261.63,417.01c-0.91-5.62-1.35-11.3-1.81-17.51c3.49-3.14,5.68-6.8,7.93-10.43
			c2.63-4.24,6.14-7.05,11.93-6.54c1.64,0.78,2.33,1.9,2.98,3.01c1.75,3,3.88,3.83,6.85,1.52c2.17-1.69,4.48-2.81,7.04,0.22
			c-0.02,7.23-3.14,12.78-7.86,17.99c-4.61,2.22-8.69,4.43-12.92,6.29C271.29,413.53,266.66,415.16,261.63,417.01z"/>
		<path class="st76" d="M288.22,406.01c2.55-6.31,5.11-12.04,7.72-18.24c3.72-6.05,7.85-7.36,13.26-4.24
			c2.76,1.59,5.62,2.9,8.9,4.57c1.67,2.19,1.69,4.28,1.52,6.9c-1.36,5.65-5.61,7.75-9.79,9.93c-5.88,3.06-11.78,6.1-14.75,13.15
			c-2.17,0.31-3.97,0.31-6.32,0.31C288.21,414.45,288.22,410.52,288.22,406.01z"/>
		<path class="st61" d="M221.9,478.46c0.91-3.62,1.76-6.78,2.7-10.44c0.09-0.51,0.64-0.5,0.92-0.5c5.13-2.14,9.84-4.36,13.8-8.16
			c3.45-3.31,7.36-2.96,10.85,1.38c-1.81,7.37-3.96,14.36-6.14,21.86c-0.86,2.37-1.7,4.24-2.61,6.57c-7.9-2.1-14.58,0.25-20.81,5.03
			c-1.18,0.91-2.84,0.7-4.6-0.37c-0.23-0.91-0.12-1.49,0.17-2.51C218.18,486.89,220.01,482.91,221.9,478.46z"/>
		<path class="st64" d="M200.36,525.38c0.5-1.37,0.9-2.27,1.3-3.53c1.36-3.1,2.71-5.84,4.42-8.86c5.06,0.88,8.77-0.19,11.23-4.73
			c1.13-2.09,3.2-3.47,4.82-5.2c3.7-3.93,7.33-4.12,11.25,0.38c-4.75,8.35-9.74,16.3-14.98,24.63c-5.06,2.63-9.68,5.16-13.81,8.63
			c-2.07,1.74-4.54,3.24-7.98,2.4C197.57,534.5,198.92,530.18,200.36,525.38z"/>
		<path class="st58" d="M233.88,503.46c-8.04-3.01-9.97-2.38-16.48,7.51c-2.96,4.5-5.9,5.96-10.69,2.12
			c2.6-6.55,5.47-12.72,8.65-19.25c3.49-1.73,6.84-2.82,9.82-4.54c5.23-3.01,10.23-5.39,15.72,0.23
			C238.94,494.1,236.54,498.6,233.88,503.46z"/>
		<path class="st63" d="M195.96,539c3.69-2.1,7.05-4.17,10.57-5.91c3.45-1.71,7.06-3.1,11.12-4.63c-0.34,1.85-1.2,3.7-2.15,5.98
			c-3.49,8.76-6.88,17.09-10.39,25.93c-3.13,0.88-6.14,1.26-9.65,1.7c-0.51-3.01-0.53-6.09-0.56-9.74
			c0.03-4.03,0.08-7.49,0.14-11.51C195.16,539.83,195.38,539.47,195.96,539z"/>
		<path class="st77" d="M474.92,268.8c-3.77,2.84-7.48,5.26-11.39,8.06c-6.41,4.95-12.73,9.51-20.44,10.97
			c-6.42,1.22-10.82,3.87-13.1,10.44c-1.05,3.02-2.02,6.53-5.17,8.8c-0.62-2.84-0.76-5.57-1.21-8.69
			c-0.78-3.53-1.25-6.67-1.65-10.34c0.15-0.73,0.24-0.94,0.18-1.45c-0.25-0.88-0.34-1.47-0.38-2.49
			c4.27-9.67,10.91-15.63,21.42-16.74c5.62-0.59,9.97-3.71,13.49-8.02c1.76-2.16,3.38-4.45,6.17-6.26
			c9.31-0.06,16.08-3.04,18.58-12.99c9.07-3.97,16.64,1.25,25.16,3.39c0.55,3.62,0.63,7.26,0.7,10.89c0.11,5.67-3.64,6.49-7.7,5.23
			C486.34,255.51,483.38,256.41,474.92,268.8z"/>
		<path class="st1" d="M253.61,628.59c0.28-0.09,0.68,0.13,1.16,0.71C254.48,629.4,254.1,629.15,253.61,628.59z"/>
		<path class="st26" d="M250.65,460.59c-5.4-2.94-9.41-1.96-13.74,2.81c-2.2,2.42-6.61,2.84-10.57,4.14
			c0.82-7.4,2.18-14.78,3.58-22.69c2.09-1.54,4.32-2.27,6.12-3.59c4.11-3.01,8.2-6.1,11.91-9.57c1.79-1.67,2.64-4.3,4.04-6.42
			c1.25-1.89,2.67-3.66,4.46-5.54C254.87,433.14,252.83,446.6,250.65,460.59z"/>
		<path class="st36" d="M280.89,383.58c-7.49-0.31-10.8,4.37-13.98,9.72c-1.36,2.29-4.07,3.78-6.64,5.65
			c-0.54-0.55-0.61-1.12-0.67-2.12c0.22-2.04-0.5-3.51-0.95-5.36c3.79-4.89,7.63-9.69,11.96-14c3.12-3.1,6.51-6.77,10.46-8.03
			c7.92-2.51,12.92-7.82,18.03-13.76c2.7-3.14,6.99-4.92,11.09-7.35c1.21,0.54,1.9,1.13,2.72,2.04c-0.93,5.02-5.33,7.01-8.16,10.24
			c-4.94,5.62-10.63,10.56-14.75,16.95C288.02,380.63,285.16,382.99,280.89,383.58z"/>
		<path class="st75" d="M258.4,391.7c0.62,1.06,1.24,2.64,1.54,4.46c-0.32,0.23-0.87,0.27-1.15,0.29
			C258.47,395.06,258.44,393.65,258.4,391.7z"/>
		<path class="st13" d="M336.11,455.32c-3.55,0.25-6.73,0.49-7.73,5.08c-2.65-6.5-2.18-12.91-0.4-19.83
			c0.82-1.86,1.73-2.95,3.53-3.9c3.71-1.48,6.9-2.77,10.59-4.08C340.44,439.98,338.28,447.37,336.11,455.32z"/>
		<path class="st20" d="M295.68,283.41c-0.42,3.83-1.18,7.38-2.06,11.42c-1.71,4.9-0.55,9.45-0.52,14.38
			c0.29,0.44,0.43,0.98,0.41,1.25c0.14,0.57,0.3,0.86,0.24,1.59c-1.48,1.48-2.99,1.56-4.51,1.4c-6.77-0.71-11.22,2.89-13.97,8.39
			c-3.42,6.83-7.51,11.37-16.08,9.27c-3.27-0.8-5.92,1.57-7.42,4.23c-4.64,8.21-13.97,12.85-16.74,22.56
			c-0.79,2.78-3.61,4.24-7.25,2.5c-0.41-5.11-0.44-9.9-0.44-15.3c5.22-6.87,10.1-13.43,15.67-19.34
			c5.39-5.72,11.56-10.69,17.27-16.12c4.27-4.06,8.27-8.39,12.54-12.45c5.59-5.32,11.36-10.47,16.99-15.75
			C292.74,278.71,294.25,280.11,295.68,283.41z"/>
		<path class="st16" d="M227.38,360.69c2.4-1.96,6.31-2.87,6.84-4.74c3.04-10.77,13.52-15.61,18.89-24.48
			c1.04-1.73,5.68-2.74,7.97-1.99c6.54,2.16,9.3-1.65,11.49-6.23c4.57-9.55,9.73-12.67,19.95-11.09c2.45,1.08,1.07,3,1.91,4.83
			c0.3,0.39,0.5,0.84,0.45,1.08c1.59,4.27-0.74,6.09-4.12,6.47c-6.94,0.78-11.07,4.7-14.34,10.58c-3.55,6.38-8.61,11.25-16.49,12.2
			c-4.05,0.49-6.92,3.17-9.69,6.01c-7.24,7.44-12.04,16.72-18.69,24.6c-2.36,2.79-0.3,6.87-2.64,10.26
			c-0.47,3.55-0.63,6.72-1.14,10.26C227.39,386.32,227.36,373.81,227.38,360.69z"/>
		<path class="st78" d="M328.32,461.13c0.98,5.22,1.87,10.46,2.82,16.22c-2.7,2.03-5.71,3.2-8.15,5.11
			c-3.75,2.94-7.1,6.39-11.07,9.69c-1.67-4.34-2.89-8.76-4.18-13.68c-2.1-2.23-3.09-4.33-2.31-7.51c1.31-2.26,3.1-3,5.05-3.05
			c3.76-0.1,6.32-2.08,8.56-4.82c2.17-2.64,4.73-4.33,8.66-2.23C328.03,461.19,328.22,461.14,328.32,461.13z"/>
		<path class="st64" d="M306.69,469.71c0.09,2.73,0.47,5,0.91,7.76c-2.11,0.48-4.27,0.47-6.96,0.45c-0.54-0.01-0.78,0.08-0.91,0.07
			c-0.42-0.73-0.47-1.52-0.81-2.63c-0.19-4.17-0.27-7.97-0.44-12.34c-1.87-2.55-1.68-4.82-0.8-7.66c0.8-1.1,1.44-1.47,2.78-1.64
			C307.04,457.35,306.6,463.45,306.69,469.71z"/>
		<path class="st79" d="M266.9,500.29c-0.47-5.54-0.57-10.75-0.65-16.55c0.01-0.6,0.09-0.59,0.13-0.61
			c2.54-3.78,6.13-6.52,9.13-9.82c5.05-5.56,10.89-5.79,17.56-2.35c1.84,6.62,0.6,12.77,0.21,19.44c-1.05,3.19-3.28,3.24-5.34,2.54
			c-3.89-1.32-6.25,0.51-8.93,3.01C275.83,498.91,272.44,502.25,266.9,500.29z"/>
		<path class="st63" d="M266.43,500.54c3.72-2.05,8.8-2.51,10.67-5.2c4.08-5.88,8.3-5.88,14.22-3.17c2.73,2.02,2.15,4.41,1.02,7.32
			c-0.82,3.16-1.25,5.83-1.8,9.01c-7.27-1.94-12.12,0.47-16.22,6.8c-2.16,3.32-6.31,5.34-10.01,7.96c-0.18-1.82,0.08-3.65,0.38-5.94
			C265.27,511.62,265.8,506.37,266.43,500.54z"/>
		<path class="st80" d="M292.72,470.15c-12.38-2.51-17.88,7.19-25.89,12.9c-0.5-6.02-0.58-12.08-0.65-18.75
			c3.72-4.19,7.72-7.53,11.05-11.44c2.78-3.25,4.49-7.18,10.16-5.51c1.19,0.35,3.38-2.73,5.57-4.3c3.71,4.54,1.96,9.65,1.84,14.57
			c-0.04,1.64-1,3.23-0.25,5.5C294.49,465.89,295.28,468.29,292.72,470.15z"/>
		<path class="st19" d="M228.44,552.76c-1.74,0.33-3.23,0.21-4.72,0.09c0.51-0.98,1.03-1.95,1.54-2.93
			C226.4,550.72,227.54,551.52,228.44,552.76z"/>
		<path class="st62" d="M279.69,588.75c-1.43-0.2-2.48-0.79-3.52-1.38c0.73-0.69,1.46-1.39,2.19-2.08
			C278.93,586.32,279.5,587.34,279.69,588.75z"/>
		<path class="st19" d="M266.37,603.03c1.25,1,2.08,2.21,2.9,3.42c-1.14,0.29-2.27,0.57-3.41,0.86
			C265.88,605.95,265.91,604.59,266.37,603.03z"/>
		<path class="st19" d="M314.65,635.44c1.3-0.54,2.32-0.68,3.34-0.82c-0.42,1.26-0.84,2.52-1.25,3.79
			C315.95,637.54,315.16,636.69,314.65,635.44z"/>
		<path class="st19" d="M235.92,530.59c1.85-0.28,3.49-0.14,5.12-0.01c-0.68,1.44-1.36,2.87-2.04,4.31
			C237.9,533.59,236.8,532.3,235.92,530.59z"/>
		<path class="st30" d="M292.19,470.8c0.3-2.43,0.63-4.26,0.96-6.57c0.4-0.94,0.91-1.19,2.28-0.95c0.87,5.26,0.95,10.19,1.21,15.72
			c-0.04,1.38,0,2.19-0.24,3.35c-0.26,1.04-0.34,1.71-0.47,2.9c-1,5.17-1.96,9.84-3.44,14.61c-0.52-2.12-0.53-4.35-0.61-7.13
			C291.94,485.26,292.08,478.33,292.19,470.8z"/>
		<path class="st1" d="M292.77,588.29c-0.19-0.27-0.05-0.72,0.39-1.37C293.34,587.18,293.22,587.65,292.77,588.29z"/>
		<path class="st19" d="M305.23,652.92c-1.43,0.59-2.76,0.71-4.1,0.84c0.34-0.87,0.68-1.74,1.02-2.61
			C303.21,651.59,304.27,652.02,305.23,652.92z"/>
		<path class="st19" d="M323.5,549.62c-0.41-1.77-0.42-3.32-0.43-4.86c1.17,0.21,2.34,0.41,3.51,0.62
			C325.69,546.87,324.8,548.36,323.5,549.62z"/>
		<path class="st19" d="M332.89,562.55c1.3,1.19,2.15,2.59,3.01,4c-1.03,0.45-2.07,0.89-3.1,1.34
			C332.68,566.18,332.57,564.48,332.89,562.55z"/>
		<path class="st24" d="M338.29,582.04c0.11,1.32-0.13,2.25-0.38,3.18c-0.58-0.39-1.15-0.78-1.73-1.17
			C336.76,583.26,337.35,582.45,338.29,582.04z"/>
		<path class="st34" d="M259.75,621.97c0.26,1.49,0.04,2.95-0.17,4.41c-0.7-0.32-1.41-0.63-2.11-0.95
			C258.07,624.27,258.68,623.1,259.75,621.97z"/>
		<path class="st57" d="M336.71,600.33c-0.43-0.57-0.51-1.09-0.59-1.6c0.37,0.01,0.73,0.01,1.1,0.02
			C337.17,599.29,337.12,599.83,336.71,600.33z"/>
		<path class="st34" d="M297.28,670.74c-0.45-1.04-0.46-2.08-0.36-3.11c0.01-0.1,0.68-0.14,1.04-0.21
			C297.9,668.53,297.83,669.64,297.28,670.74z"/>
		<path class="st24" d="M222.67,570.56c0.13,1.4-0.16,2.54-0.61,4c-1.38-0.68-2.6-1.68-3.81-2.69
			C219.58,571.34,220.92,570.82,222.67,570.56z"/>
		<path class="st9" d="M409.33,126.05c-1.58-0.46-2.68-0.71-4.06-1.27c1.67-0.16,3.63,0,5.98,0.45
			C411.17,126.1,410.56,126.35,409.33,126.05z"/>
		<path class="st81" d="M409.07,126.12c0.4-0.34,1.03-0.38,2.12-0.52c0.46-0.09,1-0.1,1.21,0.06c0.08,0.54-0.16,0.85-0.76,1.2
			C410.68,126.8,409.98,126.61,409.07,126.12z"/>
		<path class="st2" d="M298.97,454.18c-0.39,2.72-0.41,4.95-0.51,7.72c-0.62,0.86-1.15,1.16-1.97,1.59
			c-0.28,0.12-0.52,0.2-0.65,0.22c-2.35-7.95-0.82-16.03-0.61-24.65c0.44-0.91,0.69-1.24,1.55-1.55
			C301.96,442.45,301.02,448.02,298.97,454.18z"/>
		<path class="st2" d="M296.46,482.85c-0.16-0.94-0.08-1.74,0.18-2.9c0.32,0.6,0.47,1.57,0.58,2.91
			C297.18,483.25,296.7,482.99,296.46,482.85z"/>
		<path class="st4" d="M298.73,475.4c0.34,0.33,0.62,1.06,0.88,2.18C299.29,477.26,298.98,476.53,298.73,475.4z"/>
		<path class="st37" d="M259.76,638.2c-0.38,0.72-1,1.18-2.04,1.52C258.04,639.04,258.78,638.49,259.76,638.2z"/>
		<path class="st67" d="M113.72,396.24c-5.02-2.19-4.78-6.19-4.19-10.8c2.91-2.44,5.51-4.78,8.55-6.18
			c4.88-2.25,9.25-1.98,10.88,4.96C126.8,392.02,119.68,393.06,113.72,396.24z"/>
		<path class="st7" d="M157.42,458.38c0.58-1.25,1.67-2.47,3.17-3.82C159.98,455.76,158.96,457.09,157.42,458.38z"/>
		<path class="st65" d="M172.45,460.36c-0.41,1.46-1.12,2.66-2.02,4.25c-0.66,0.82-1.23,1.11-2.34,1.23
			c-1.1-0.28-1.59-0.67-1.85-1.71C168.26,462.47,170.21,461.29,172.45,460.36z"/>
		<path class="st63" d="M165.89,463.71c0.57,0.35,0.79,0.69,1.38,1.12c1.04,1.07,0.41,1.65-0.58,2.48
			c-0.34,0.26-0.97,0.33-1.28,0.41c-0.89,0.03-1.47-0.02-2.49-0.1C163.47,466.31,164.46,465.04,165.89,463.71z"/>
		<path class="st32" d="M166.81,467.57c-0.14-0.64,0.18-1.27,0.61-2.24c0.72-0.34,1.32-0.34,2.37-0.34
			C169.25,465.85,168.26,466.71,166.81,467.57z"/>
		<path class="st51" d="M172.04,330.26c0.55-1.22,1.53-2.48,2.95-3.78C174.45,327.7,173.46,328.96,172.04,330.26z"/>
		<path class="st57" d="M181.54,336.86c-2.3,2.96-5.05,5.94-8.25,8.95C175.59,342.86,178.34,339.87,181.54,336.86z"/>
		<path class="st57" d="M185.33,334.22c-0.16,0.78-0.72,1.62-1.7,2.5C183.78,335.94,184.35,335.11,185.33,334.22z"/>
		<path class="st82" d="M308.18,260.29c-0.06,0.85-0.52,1.66-1.29,2.62c-1.04-0.87-1.75-1.9-2.47-2.94
			C305.54,260.06,306.66,260.15,308.18,260.29z"/>
		<path class="st20" d="M305.28,264.51c-0.33,1.1-1.13,2.29-2.34,3.62C303.29,267.04,304.05,265.82,305.28,264.51z"/>
		<path class="st9" d="M326.62,244.85c-0.26,0.58-0.87,1.19-1.81,1.88C325.07,246.17,325.67,245.53,326.62,244.85z"/>
		<path class="st43" d="M334.44,240.84c-0.24,0.44-0.86,0.84-1.88,1.23C332.8,241.64,333.43,241.23,334.44,240.84z"/>
		<path class="st20" d="M296.98,280.07c0.17,0.57,0,1.44-0.5,2.63C296.32,282.14,296.47,281.25,296.98,280.07z"/>
		<path class="st20" d="M311.4,256.63c-0.19,0.49-0.84,0.99-1.89,1.63C309.72,257.82,310.33,257.23,311.4,256.63z"/>
		<path class="st43" d="M317.48,251.33c0.33,0.35,0.16,0.71-0.55,1.04C316.68,252.02,316.87,251.69,317.48,251.33z"/>
		<path class="st43" d="M316.27,252.57c0.23,0.36,0,0.68-0.67,0.98C315.37,253.19,315.59,252.87,316.27,252.57z"/>
		<path class="st81" d="M255.67,223.84c2.47-2.89,5.3-5.15,7.5-7.9c1.46-1.83,2.01-4.38,2.93-7.12c1.43-2.84,2.89-5.16,4.61-7.81
			c3.41-0.88,7.17-0.51,9.6-2.14c15.45-10.4,30.65-21.18,45.85-31.94c9.73-6.89,19.58-13.65,28.9-21.07
			c7.15-5.69,13.42-12.46,20.38-18.42c1.91-1.64,4.82-2.73,7.36-2.91c6.01-0.41,12.07-0.13,18.69-0.08
			c-2.61,3.05-5.57,6.36-9.04,9.02c-15.66,11.98-31.21,24.11-47.31,35.48c-8.32,5.88-17.79,10.12-26.52,15.47
			c-3.56,2.18-6.43,5.46-9.8,8c-5.75,4.33-11.63,8.48-17.47,12.71c-3.46,2.51-7.25,4.68-10.34,7.59
			c-6.52,6.14-12.68,12.66-19.41,19.11C258.96,229.66,258.08,226.45,255.67,223.84z"/>
		<path class="st67" d="M255.07,223.31c2.33,2.61,4.16,5.12,6.06,8.11c0.61,5.96-3.06,8.26-7.38,9.37
			c-5.15,1.32-9.2-0.82-12.01-5.88C242.24,225.38,245.24,222.77,255.07,223.31z"/>
		<path class="st40" d="M403.98,278.03c8.66,14.86,8.45,29.41,2.61,44.94c-7.37,19.63-33.45,35.26-52.37,32.85
			c-31.07-3.95-53.45-31.72-46.34-65.37c5.76-27.26,35.25-45.63,59.89-39.9C383.43,254.19,396.63,262.12,403.98,278.03z"/>
		<path class="st77" d="M280.5,383.87c8.87-9.69,17.76-18.94,26.73-28.11c1.58-1.62,3.52-2.89,5.57-4.7
			c6.82,3.97,13.38,8.33,20.32,12.95c-4.58,5.56-6.39,12.67-10.2,18.63c-1.25,1.95-1.92,4.29-4.43,5.8
			c-3.05-0.57-6.37-0.51-8.13-2.14c-5.02-4.66-9.18-2.96-13.95,0.78c-1.93,0.23-3.82-0.32-4.92,0.38
			C284.19,392.06,284.05,392.09,280.5,383.87z"/>
		<path class="st82" d="M229.04,388.54c-2.84-12.69,7.65-19.41,13.25-28.22c5.32-8.36,12.24-15.02,23.29-16.67
			c3.64-0.54,7.23-5.82,9.56-9.71c3.48-5.82,6.98-10.6,14.52-10.99c1.74-0.09,3.37-2.33,5.11-4.1c1.59,4.02,3.12,8.56,4.74,13.58
			c-1.95,3.09-4.37,5.05-8.32,4.64c-4.01,1.45-8.25,2.51-11.12,5.09c-3.24,2.92-4.92,7.5-7.92,10.78c-2.91,3.2-6.36,7.6-10.03,8.1
			c-10.85,1.46-16.68,8.29-22.31,16.39C236.98,381.54,232.97,384.83,229.04,388.54z"/>
		<path class="st36" d="M462.75,252.65c-4.45,9.15-10.96,15.25-21.9,17.22c-5.44,0.98-10.16,6.26-15.07,9.78
			c-1.3,0.93-2.09,2.57-3.55,3.96c-0.44,0.07-0.49,0.12-0.51,0.09c-0.86-0.96-0.49-2.17-1.01-3.56c-1.12-1.76-1.97-3.2-2.85-5.07
			c7.63-14.89,20.66-21.96,36.17-26.43C457.14,249.87,459.73,251.19,462.75,252.65z"/>
		<path class="st83" d="M318.03,389.13c3.24-7.42,6.3-14.37,9.84-21.08c0.8-1.51,3.24-2.15,5.27-3.49
			c4.85,0.77,9.36,1.83,14.31,3.13c3.08,0.68,5.72,1.12,8.9,1.61c2,1.97,0.79,3.87-0.68,4.12c-8.28,1.39-11.71,9.41-18.74,13.22
			c-4.17,1.85-7.59,3.91-10.34,7.02c-2.05,2.31-4.46,3.96-8.18,3C318.03,394.14,318.03,391.91,318.03,389.13z"/>
		<path class="st11" d="M290.89,337.24c2.56-1.71,5.2-2.97,8.27-4.28c1.19,1.09,1.94,2.23,2.96,3.69c0.48,0.51,0.68,0.71,0.61,1.23
			C298.56,339.48,294.57,342.86,290.89,337.24z"/>
		<path class="st43" d="M293.47,309.05c-0.28-3.92-0.48-8.43-0.32-13.34C293.52,299.69,293.54,304.07,293.47,309.05z"/>
		<path class="st43" d="M294.75,316.9c-0.54-0.94-1.05-2.37-1.66-4.27c-0.02-0.71,0.04-0.96,0.26-1.55
			C293.92,312.62,294.35,314.51,294.75,316.9z"/>
		<path class="st71" d="M396.65,356.29c-0.62,0.82-1.66,1.63-3.12,2.45C394.15,357.93,395.19,357.11,396.65,356.29z"/>
		<path class="st33" d="M422.84,311.09c0.47,0.99,0.84,2.21,1.2,3.43c-0.27-0.04-0.75-0.02-0.79-0.13
			c-0.16-0.57-0.21-1.17-0.36-2.17C422.84,311.79,422.73,311.31,422.84,311.09z"/>
		<path class="st43" d="M420.42,280.24c0.47,0.58,0.91,1.58,1.32,3.01C421.26,282.67,420.83,281.67,420.42,280.24z"/>
		<path class="st71" d="M391.44,359.86c-0.21,0.41-0.79,0.92-1.8,1.44C389.84,360.86,390.45,360.4,391.44,359.86z"/>
		<path class="st43" d="M304.98,340.33c-0.29,0.04-0.62-0.27-0.98-0.92C304.29,339.37,304.61,339.68,304.98,340.33z"/>
		<path class="st43" d="M302.71,338.2c-0.26,0-0.31-0.62-0.32-0.93c0.46-0.31,0.8-0.11,1.07,0.61
			C303.51,338.19,302.98,338.2,302.71,338.2z"/>
		<path class="st36" d="M421.92,286.61c0.53-0.09,0.66,0.24,0.27,0.8C422.02,287.53,421.87,286.92,421.92,286.61z"/>
		<path class="st36" d="M417.08,273.68c0.29-0.08,0.49,0.16,0.68,0.71C417.47,274.51,417.23,274.28,417.08,273.68z"/>
		<path class="st84" d="M317.84,396.75c3.55-2.63,6.84-4.96,10.27-7.06c2.27-1.39,4.74-2.46,7.59-3.68
			c4.4,4.24,3.97,9.44,3.39,15.07c-0.31,1.04-0.31,1.61-0.32,2.62c-2.35,5.97-7.78,9-11.34,14.15c-9.09,3.7-17.51,7.49-23.75,14.96
			c-1.99,2.38-4.79,2.83-7.02-0.94c-0.44-1.38-0.32-2.3,0.02-3.66c0.95-2.72,0.42-5.13,0.72-7.46c0-0.03,1.72-2.52-1.04-0.91
			c-0.78-0.28-1.11-0.52-1.52-1.16c-0.57-8.27,6.23-10.2,11.15-13.67C309.82,402.3,313.75,399.76,317.84,396.75z"/>
		<path class="st85" d="M339.25,401.53c-1.33-4.82-2.19-9.64-3.06-15c6.24-6.57,12.11-13.1,20.64-16.72
			c3.32-0.09,6.58,0.28,9.84,0.65c-1.53,3.23-2.48,6.95-4.7,9.6c-5.61,6.69-11.74,12.95-17.81,19.23
			C343.06,400.41,341.22,400.8,339.25,401.53z"/>
		<path class="st86" d="M326.72,417.49c4.01-4.6,7.65-8.79,11.66-13.17c2.76,2.29,5.14,4.76,7.92,7.45
			c-3.63,6.1-7.76,11.94-11.67,17.91c-1.14,1.75-1.69,3.89-2.56,6.33c-0.6,1.25-1.13,2.01-1.98,2.95c-2.99,1.72-4.53-0.06-6.37-2.29
			C322.17,429.72,321.7,423.41,326.72,417.49z"/>
		<path class="st33" d="M424.62,307.32c1.88-5.3,3.93-10.3,6.27-15.17c0.67-1.41,1.94-2.95,3.31-3.53
			c9.32-3.93,18.75-7.62,28.63-11.38c0.85,2.67,1.21,5.33,1.65,8.48c-8.6,5.32-17.32,10.09-25.95,15.02
			c-2.56,1.46-4.73,3.62-7.32,5.01C429.31,306.77,427.01,307.06,424.62,307.32z"/>
		<path class="st35" d="M296.4,437.59c-0.34,8.61-0.42,16.78-0.59,25.55c-0.65,0.6-1.23,0.59-2.23,0.59
			c-0.32-6.51-0.22-13.03-0.14-20.15c0.41-3.26,0.84-5.93,1.29-9.11c0.33-0.64,0.65-0.77,1.37-0.58
			C297.02,435.16,297.07,436.14,296.4,437.59z"/>
		<path class="st87" d="M295.99,420.23c0.58-1.39,1.16-2.24,1.74-3.09c0.29,0.84,0.81,1.68,0.82,2.52c0.03,2.31-0.16,4.62-0.51,7.36
			c-1.52,0.51-1.24-0.53-1.66-1.56C296.09,423.67,296.04,422.22,295.99,420.23z"/>
		<path class="st53" d="M296.15,425.57c0.43,0.11,0.86,0.67,1.46,1.56c0.12,1.34,0.07,2.36,0.11,3.87c0.06,2.24,1.1,3.93-0.03,6.1
			c-0.54,0.49-0.75,0.57-1.26,0.79c-0.37-0.92-0.44-1.98-0.56-3.56c-0.77-1.85-0.46-3.27-0.24-5.14
			C295.95,427.81,296.05,426.92,296.15,425.57z"/>
		<path class="st71" d="M295.52,429.04c0.34,1.03,0.35,2.39,0.33,4.26c-0.03,0.51-0.57,0.59-0.84,0.62
			C294.9,432.42,295.05,430.9,295.52,429.04z"/>
		<path class="st88" d="M324.09,436.21c1.9,1.14,3.37,1.98,5.27,2.88c-0.09,7-0.62,13.95-1.23,21.5c-2.76,1.78-5.42,2.99-8.11,4.14
			c-4.23,1.81-8.48,3.57-13.17,5.4c-1.94-4.94-3.43-9.93-5.29-15.21c-2.68-3.57-1.06-6.62,1.42-8.16
			C309.57,442.65,316.45,438.94,324.09,436.21z"/>
		<path class="st87" d="M324.51,435.92c-1.92,1.79-3.81,3.04-5.78,4.17c-2.53,1.45-4.98,3.31-7.71,4.07
			c-5.17,1.43-9.1,3.69-9.83,9.99c-0.58,0.49-1.15,0.5-2.16,0.52c-0.84-5.33-1.24-10.67-1.66-16.58c0.05-2.24,0.11-3.92,0.31-6.09
			c1.78-0.41,4.28,0.38,4.91-0.38c6.24-7.55,14.19-12.08,24.04-14.48C326.24,423.16,325.38,429.24,324.51,435.92z"/>
		<path class="st5" d="M390.23,285.94c1.59,4.28,3.13,8.18,3.84,12.22c2.64,15-6.22,32.97-20.55,37.65
			c-12.12,3.96-25.61,4.9-36.34-4.15c-13.61-11.49-17.3-26.92-11.77-41.45c8.33-21.89,28.57-26.88,49.44-19.97
			c1.7,2.87,5.13,4.07,4.56,8.08c-1.98,2-4.2,1.88-6.32,1.93c-4.33,0.11-7,2.16-7.33,6.51c-0.26,3.53,0.2,7.18,4.1,8.63
			c4.22,1.56,8.06,0.67,10.88-3.16c1.41-1.92,1.59-4.47,3.59-6.59C386.48,284.66,388.16,284.64,390.23,285.94z"/>
		<path class="st4" d="M390.6,285.81c-1.74,0.45-3.54,0.46-5.88,0.47c-3.55-1.3-4.99-3.89-5.92-7.21c-1.15-2.77-2.43-5.11-3.7-7.92
			C380.25,275.57,385.39,280.46,390.6,285.81z"/>
		<path class="st40" d="M378.35,278.59c2.17,2.34,3.77,4.65,5.6,7.32c0.45,5.98-2.22,10.37-7.37,11.52
			c-3.22,0.72-9.09-0.34-10.21-2.47c-1.93-3.67-1.87-8.96-1.01-13.24c0.32-1.62,5.11-2.53,7.97-3.38
			C374.68,277.95,376.29,278.46,378.35,278.59z"/>
	</g>
</g>
</svg>
